<?xml version="1.0" encoding="utf-8"?>
<!-- Generator: Adobe Illustrator 25.0.1, SVG Export Plug-In . SVG Version: 6.00 Build 0)  -->
<svg version="1.1" id="text" xmlns="http://www.w3.org/2000/svg" xmlns:xlink="http://www.w3.org/1999/xlink" x="0px" y="0px"
	 viewBox="0 0 2517 913" style="enable-background:new 0 0 2517 913;" xml:space="preserve">
<style type="text/css">
	.st0{fill:#E28427;}
	.st1{fill:#9E4F00;}
	.st2{opacity:0.47;fill:#FFF05F;}
</style>
<g>
	<circle class="st0" cx="100.2" cy="598.6" r="90.6"/>
	<g>
		<g>
			<path class="st1" d="M104.2,589.6c-15.8,0-28.6-11.3-28.6-25.1s12.8-25.1,28.6-25.1s28.6,11.3,28.6,25.1S120,589.6,104.2,589.6z
				 M104.2,549c-10.5,0-19,6.9-19,15.5c0,8.5,8.5,15.5,19,15.5c10.5,0,19-6.9,19-15.5C123.2,556,114.7,549,104.2,549z"/>
		</g>
		<g>
			<path class="st1" d="M128.4,569.1c-2.7,0-4.8-2.1-4.8-4.8v-99c0-2.1,1.4-4,3.5-4.6l86.3-25.3c1.5-0.4,3-0.1,4.2,0.8
				c1.2,0.9,1.9,2.3,1.9,3.8v99c0,2.7-2.1,4.8-4.8,4.8c-2.7,0-4.8-2.1-4.8-4.8v-92.6l-76.7,22.5v95.4
				C133.2,567,131.1,569.1,128.4,569.1z"/>
		</g>
		<g>
			<path class="st1" d="M190.6,564.3c-15.8,0-28.6-11.3-28.6-25.1c0-13.8,12.8-25.1,28.6-25.1s28.6,11.3,28.6,25.1
				C219.2,553,206.3,564.3,190.6,564.3z M190.6,523.7c-10.5,0-19,6.9-19,15.5c0,8.5,8.5,15.5,19,15.5s19-6.9,19-15.5
				C209.6,530.7,201.1,523.7,190.6,523.7z"/>
		</g>
		<g>
			<path class="st1" d="M128.4,498.3c-2.1,0-4-1.4-4.6-3.5c-0.7-2.5,0.7-5.2,3.3-6l86.3-25.3c2.5-0.7,5.2,0.7,6,3.3
				c0.7,2.5-0.7,5.2-3.3,6l-86.3,25.3C129.3,498.2,128.9,498.3,128.4,498.3z"/>
		</g>
	</g>
	<g>
		<g>
			<path class="st1" d="M262.8,496.6c-15.8,0-28.6-11.3-28.6-25.1s12.8-25.1,28.6-25.1c15.8,0,28.6,11.3,28.6,25.1
				S278.6,496.6,262.8,496.6z M262.8,456c-10.5,0-19,6.9-19,15.5c0,8.5,8.5,15.5,19,15.5c10.5,0,19-6.9,19-15.5
				C281.8,462.9,273.3,456,262.8,456z"/>
		</g>
		<g>
			<path class="st1" d="M287,476.1c-2.7,0-4.8-2.1-4.8-4.8v-70.7c0-0.1,0-0.1,0-0.2v-28c0-2.1,1.4-4,3.5-4.6l61-17.9
				c1.4-0.4,3-0.1,4.2,0.8c1.2,0.9,1.9,2.3,1.9,3.8v28.1c0,2.1-1.4,4-3.4,4.6L291.8,404v67.2C291.8,473.9,289.6,476.1,287,476.1z
				 M291.8,375.9V394l51.4-15.1v-18.1L291.8,375.9z"/>
		</g>
	</g>
	<g>
		<g>
			<g>
				<rect x="332.4" y="464.8" class="st1" width="9.6" height="10.8"/>
			</g>
			<g>
				<rect x="332.4" y="487.6" class="st1" width="9.6" height="10.8"/>
			</g>
		</g>
		<g>
			<g>
				<rect x="343.2" y="476.8" class="st1" width="10.8" height="9.6"/>
			</g>
			<g>
				<rect x="320.4" y="476.8" class="st1" width="10.8" height="9.6"/>
			</g>
		</g>
	</g>
	<g>
		<g>
			<g>
				<rect x="95.3" y="398" class="st1" width="7.2" height="13.7"/>
			</g>
			<g>
				<rect x="95.3" y="427" class="st1" width="7.2" height="13.7"/>
			</g>
		</g>
		<g>
			<g>
				<rect x="106.5" y="415.8" class="st1" width="13.7" height="7.2"/>
			</g>
			<g>
				<rect x="77.6" y="415.8" class="st1" width="13.7" height="7.2"/>
			</g>
		</g>
	</g>
	<rect x="282" y="539.2" class="st1" width="9.6" height="9.6"/>
	<g>
		<path class="st1" d="M228,378.4c-5.3,0-9.6-4.3-9.6-9.6c0-5.3,4.3-9.6,9.6-9.6c5.3,0,9.6,4.3,9.6,9.6
			C237.6,374.1,233.3,378.4,228,378.4z M228,364c-2.6,0-4.8,2.2-4.8,4.8s2.2,4.8,4.8,4.8c2.6,0,4.8-2.2,4.8-4.8S230.6,364,228,364z"
			/>
	</g>
</g>
<circle class="st2" cx="1887.6" cy="232" r="145.2"/>
<circle class="st2" cx="2398.8" cy="179.2" r="82.8"/>
<circle class="st0" cx="1590" cy="329.2" r="58.8"/>
<g>
	<g>
		<rect x="265.2" y="12.4" class="st1" width="10.8" height="58.8"/>
	</g>
	<g>
		<rect x="241.2" y="36.4" class="st1" width="58.8" height="10.8"/>
	</g>
</g>
<g>
	<g>
		<rect x="1590" y="569.2" class="st1" width="10.8" height="58.8"/>
	</g>
	<g>
		<rect x="1566" y="593.2" class="st1" width="58.8" height="10.8"/>
	</g>
</g>
<g>
	<g>
		
			<rect x="1624.8" y="142" transform="matrix(0.7071 -0.7071 0.7071 0.7071 379.6137 1212.5449)" class="st1" width="57.7" height="12"/>
	</g>
	<g>
		
			<rect x="1647.6" y="119.2" transform="matrix(0.7071 -0.7071 0.7071 0.7071 379.6764 1212.62)" class="st1" width="12" height="57.7"/>
	</g>
</g>
<g>
	<g>
		
			<rect x="906" y="600.4" transform="matrix(0.7071 -0.7071 0.7071 0.7071 -154.993 838.6139)" class="st1" width="57.7" height="12"/>
	</g>
	<g>
		
			<rect x="928.8" y="577.6" transform="matrix(0.7071 -0.7071 0.7071 0.7071 -154.993 838.6139)" class="st1" width="12" height="57.7"/>
	</g>
</g>
<g>
	<g>
		
			<rect x="1161.6" y="325.6" transform="matrix(0.7071 -0.7071 0.7071 0.7071 114.1477 938.7999)" class="st1" width="57.7" height="12"/>
	</g>
	<g>
		
			<rect x="1184.4" y="302.8" transform="matrix(0.7071 -0.7071 0.7071 0.7071 114.1835 938.8633)" class="st1" width="12" height="57.7"/>
	</g>
</g>
<g>
	<g>
		<rect x="176.4" y="65.2" class="st1" width="10.8" height="94.8"/>
	</g>
	<g>
		<rect x="134.4" y="107.2" class="st1" width="94.8" height="10.8"/>
	</g>
</g>
<g>
	<path class="st1" d="M275.3,819.8l-1.2-16.8c3.5-0.3,6.9-0.8,10.3-1.5l3.7,16.4C283.9,818.8,279.6,819.4,275.3,819.8z M249.7,817.9
		c-4.2-1-8.4-2.2-12.4-3.8l6.1-15.6c3.2,1.3,6.6,2.3,9.9,3.1L249.7,817.9z M312.1,808.4l-8.4-14.5c3-1.7,5.9-3.7,8.6-5.9l10.5,13.1
		C319.4,803.8,315.8,806.3,312.1,808.4z M215,801.2c-3.4-2.7-6.5-5.6-9.5-8.8l12.3-11.4c2.4,2.5,4.9,4.9,7.6,7.1L215,801.2z
		 M340.2,782.3l-13.9-9.5c2-2.9,3.7-5.9,5.2-9l15.1,7.3C344.8,774.9,342.6,778.7,340.2,782.3z M191,771.2c-1.9-3.9-3.5-7.9-4.7-12
		l16-5c1,3.3,2.3,6.6,3.8,9.7L191,771.2z M354.2,746.5l-16.6-2.5c0.5-3.4,0.8-6.9,0.8-10.4v-0.2h16.8v0.2
		C355.2,737.9,354.9,742.2,354.2,746.5z M182.4,733.7v-0.1c0-4.3,0.3-8.5,0.9-12.7l16.6,2.5c-0.5,3.4-0.8,6.8-0.8,10.3L182.4,733.7z
		 M335.3,712.9c-1-3.3-2.3-6.5-3.8-9.7l15.1-7.3c1.9,3.9,3.5,7.9,4.8,12L335.3,712.9z M206,703.5l-15.1-7.3c1.9-3.9,4-7.6,6.4-11.2
		l13.9,9.5C209.3,697.4,207.5,700.4,206,703.5z M319.7,686.1c-2.4-2.5-4.9-4.9-7.6-7.1l10.5-13.2c3.4,2.7,6.5,5.6,9.5,8.8
		L319.7,686.1z M225.3,679.3l-10.5-13.1c3.3-2.7,6.9-5.1,10.6-7.3l8.4,14.5C230.9,675.1,228,677.1,225.3,679.3z M294.1,668.7
		c-3.2-1.3-6.6-2.3-9.9-3l3.7-16.4c4.2,0.9,8.4,2.2,12.4,3.8L294.1,668.7z M253.2,665.8l-3.8-16.4c4.2-1,8.5-1.6,12.8-1.9l1.3,16.8
		C260,664.5,256.5,665,253.2,665.8z"/>
</g>
<g>
	<path class="st1" d="M446.7,759.2c-4.1-0.9-7.9-2.6-11.3-5.1l8.4-11.7c1.8,1.3,3.9,2.2,6.1,2.7L446.7,759.2z M462.1,758.8
		l-3.9-13.9c2.2-0.6,4.1-1.6,5.9-3l9,11.2C469.8,755.8,466.1,757.7,462.1,758.8z M425.5,742.4c-1.8-3.8-2.9-7.8-3.1-12l14.4-0.7
		c0.1,2.3,0.7,4.4,1.6,6.4L425.5,742.4z M482.4,740.9l-13.3-5.6c0.9-2.1,1.3-4.3,1.3-6.5l14.4-0.1v0.1
		C484.8,733,484,737.1,482.4,740.9z M438.4,721.5l-13-6.2c1.8-3.8,4.3-7.1,7.4-9.9l9.6,10.8C440.8,717.7,439.4,719.5,438.4,721.5z
		 M468.3,720.7c-1.1-2-2.5-3.7-4.3-5.1l8.9-11.3c3.3,2.6,6,5.8,8,9.4L468.3,720.7z M449.8,712.4l-3.2-14c2.3-0.5,4.6-0.8,7-0.8
		c1.7,0,3.6,0.2,5.3,0.5l-2.4,14.2c-0.9-0.2-1.9-0.2-2.9-0.2c0,0,0,0,0,0C452.3,712,451,712.1,449.8,712.4z"/>
</g>
<g>
	<path class="st1" d="M2295.4,727c-4.1-0.3-8.2-0.9-12.2-1.8l2.1-9.4c3.6,0.8,7.2,1.4,10.8,1.6L2295.4,727z M2320,725.1l-2.2-9.4
		c3.5-0.8,7-1.9,10.4-3.2l3.7,8.9l-0.1,0.1C2327.9,723,2323.9,724.2,2320,725.1z M2260.1,716.2c-3.6-2.1-7-4.4-10.2-6.9l6-7.5
		c2.9,2.3,5.9,4.3,9.1,6.1L2260.1,716.2z M2353.1,709.1l-6-7.5c2.8-2.3,5.5-4.8,8-7.4l7.1,6.5
		C2359.4,703.7,2356.4,706.5,2353.1,709.1z M2233.1,691.2c-2.3-3.4-4.4-7-6.2-10.7l8.6-4.2c1.6,3.3,3.4,6.5,5.5,9.5L2233.1,691.2z
		 M2376.1,680.2l-8.7-4.2c1.6-3.3,2.9-6.7,4-10.2l9.2,2.8C2379.4,672.7,2377.8,676.5,2376.1,680.2z M2219.6,656.9
		c-0.6-4.1-0.9-8.2-1-12.3l9.6,0c0,3.6,0.3,7.3,0.8,10.9L2219.6,656.9z M2374.6,644.3c0-3.6-0.3-7.3-0.8-10.9l9.5-1.4
		c0.6,4.1,0.9,8.2,0.9,12.3L2374.6,644.3z M2231.4,623l-9.2-2.8c1.2-3.9,2.7-7.8,4.5-11.5l8.7,4.1
		C2233.8,616.1,2232.5,619.5,2231.4,623z M2367.4,612.6c-1.6-3.3-3.4-6.5-5.5-9.5l7.9-5.4c2.3,3.4,4.4,7,6.2,10.7L2367.4,612.6z
		 M2247.6,594.7l-7.1-6.5c2.8-3,5.8-5.9,9.1-8.4l6,7.5C2252.8,589.5,2250.1,592,2247.6,594.7z M2347,587.1c-2.8-2.3-5.9-4.3-9-6.1
		l4.8-8.3c3.6,2.1,7,4.4,10.2,7L2347,587.1z M2274.5,576.3l-3.6-8.9l0.2-0.1c3.9-1.5,7.9-2.8,11.8-3.7l2.1,9.4
		c-3.5,0.8-7,1.9-10.5,3.2L2274.5,576.3z M2317.7,573c-3.5-0.8-7.2-1.4-10.8-1.6l0.7-9.6c4.1,0.3,8.2,0.9,12.2,1.8L2317.7,573z"/>
</g>
<g>
	<path class="st1" d="M2159.9,672.2c-4.2-0.3-8.2-1.4-11.9-3.3l6.5-12.8c2,1,4.2,1.6,6.4,1.8L2159.9,672.2z M2175.1,669.5l-5.9-13.1
		c2.1-0.9,3.9-2.2,5.4-3.9l10.6,9.8C2182.3,665.3,2178.9,667.8,2175.1,669.5z M2136.4,658.7c-1.3-1.9-2.4-4-3.3-6.2
		c-0.7-1.7-1.2-3.4-1.5-5.1l14.1-2.9c0.2,0.9,0.5,1.9,0.8,2.8c0.5,1.2,1.1,2.3,1.8,3.4L2136.4,658.7z M2192.4,648.7l-14-3.5
		c0.3-1.4,0.5-2.7,0.5-4.1c0-0.8-0.1-1.7-0.2-2.5l14.2-2.2c0.2,1.5,0.4,3.1,0.4,4.7C2193.4,643.7,2193.1,646.2,2192.4,648.7z
		 M2146.1,636.2l-13.8-4.2c1.2-4,3.2-7.7,5.9-10.9l11.1,9.2C2147.8,632.1,2146.8,634,2146.1,636.2z M2175.6,630.9
		c-1.4-1.8-3-3.3-5-4.4l7.2-12.5c3.6,2.1,6.8,4.8,9.3,8.2L2175.6,630.9z M2156,625.4l-5.4-13.3l0.2-0.1c3.8-1.5,8-2.2,12.1-2.1
		l-0.3,14.4l-0.4,0C2160.1,624.3,2158,624.7,2156,625.4z"/>
</g>
<g>
	<path class="st1" d="M1259.4,424c-4.2-0.3-8.2-1.4-11.9-3.3l6.5-12.8c2,1,4.2,1.6,6.4,1.8L1259.4,424z M1274.5,421.3l-5.9-13.1
		c2.1-0.9,3.9-2.2,5.4-3.9l10.6,9.8C1281.7,417.1,1278.3,419.6,1274.5,421.3z M1235.9,410.5c-1.3-1.9-2.4-4-3.3-6.2
		c-0.7-1.7-1.2-3.4-1.5-5.1l14.1-2.9c0.2,0.9,0.5,1.9,0.8,2.8c0.5,1.2,1.1,2.3,1.8,3.4L1235.9,410.5z M1291.9,400.5l-14-3.5
		c0.3-1.4,0.5-2.7,0.5-4.1c0-0.8-0.1-1.7-0.2-2.5l14.2-2.2c0.2,1.5,0.4,3.1,0.4,4.7C1292.8,395.5,1292.5,398,1291.9,400.5z
		 M1245.6,388l-13.8-4.2c1.2-4,3.2-7.7,5.9-10.9l11.1,9.2C1247.3,383.9,1246.2,385.8,1245.6,388z M1275,382.7c-1.4-1.8-3-3.3-5-4.4
		l7.2-12.5c3.6,2.1,6.8,4.8,9.3,8.2L1275,382.7z M1255.5,377.2l-5.4-13.3l0.2-0.1c3.9-1.5,8-2.3,12.2-2.1l-0.4,14.4l-0.4,0
		C1259.5,376.1,1257.5,376.5,1255.5,377.2z"/>
</g>
<g>
	<path class="st1" d="M967.7,736.2c-4.2-0.3-8.2-1.4-11.9-3.3l6.5-12.8c2,1,4.2,1.6,6.4,1.8L967.7,736.2z M982.9,733.5l-5.9-13.1
		c2.1-0.9,3.9-2.2,5.4-3.9l10.6,9.8C990.1,729.3,986.7,731.7,982.9,733.5z M944.3,722.7c-1.3-1.9-2.4-4-3.3-6.2
		c-0.7-1.7-1.2-3.4-1.5-5.1l14.1-2.9c0.2,0.9,0.5,1.9,0.8,2.8c0.5,1.2,1.1,2.3,1.8,3.4L944.3,722.7z M1000.3,712.7l-14-3.5
		c0.3-1.3,0.5-2.7,0.5-4.1c0-0.8-0.1-1.7-0.2-2.5l14.2-2.2c0.2,1.5,0.4,3.1,0.4,4.7C1001.2,707.6,1000.9,710.2,1000.3,712.7z
		 M953.9,700.1l-13.8-4.2c1.2-4,3.2-7.7,5.9-10.9l11.1,9.2C955.7,696,954.6,698,953.9,700.1z M983.4,694.9c-1.4-1.8-3-3.3-5-4.4
		l7.2-12.5c3.6,2.1,6.8,4.8,9.3,8.2L983.4,694.9z M963.7,689.5l-1.8-4.9l-3.5-8.5l0.2-0.1c3.9-1.5,8-2.3,12.2-2.2l-0.3,14.4l-0.4,0
		c-2.1,0-4.2,0.4-6.1,1.2L963.7,689.5z"/>
</g>
<g>
	<path class="st0" d="M1036,357.2c24.7,56.3-0.9,121.9-57.1,146.6c-56.3,24.7-121.9-0.9-146.6-57.1c-24.7-56.3,0.9-121.9,57.1-146.6
		C945.7,275.4,1011.3,301,1036,357.2z"/>
	<path class="st0" d="M989,475.9c0,0,44.9,37.3,117.9,47.9c0,0-70.2-43.2-94.5-118L989,475.9z"/>
</g>
<g>
	<g>
		<g>
			<rect x="2199.6" y="126.4" class="st1" width="9.6" height="10.8"/>
		</g>
		<g>
			<rect x="2199.6" y="149.2" class="st1" width="9.6" height="10.8"/>
		</g>
	</g>
	<g>
		<g>
			<rect x="2210.4" y="138.4" class="st1" width="10.8" height="9.6"/>
		</g>
		<g>
			<rect x="2187.6" y="138.4" class="st1" width="10.8" height="9.6"/>
		</g>
	</g>
</g>
<g>
	<g>
		<g>
			<rect x="2244.7" y="767.2" class="st1" width="19.2" height="22.8"/>
		</g>
		<g>
			<rect x="2244.7" y="815.3" class="st1" width="19.2" height="22.8"/>
		</g>
	</g>
	<g>
		<g>
			<rect x="2266.9" y="793.1" class="st1" width="22.8" height="19.2"/>
		</g>
		<g>
			<rect x="2218.8" y="793.1" class="st1" width="22.8" height="19.2"/>
		</g>
	</g>
</g>
<g>
	<g>
		<g>
			<rect x="813.1" y="187.6" class="st1" width="19.2" height="22.8"/>
		</g>
		<g>
			<rect x="813.1" y="235.7" class="st1" width="19.2" height="22.8"/>
		</g>
	</g>
	<g>
		<g>
			<rect x="835.3" y="213.5" class="st1" width="22.8" height="19.2"/>
		</g>
		<g>
			<rect x="787.2" y="213.5" class="st1" width="22.8" height="19.2"/>
		</g>
	</g>
</g>
<circle class="st2" cx="704.4" cy="661.6" r="163.2"/>
<g>
	<g>
		<path class="st1" d="M590.4,724c-2.1,0-4.1-1.4-4.6-3.6c-0.7-2.6,0.9-5.2,3.5-5.8c90.8-23.3,161.4-65.2,216-128.1
			c1.7-2,4.8-2.2,6.8-0.5c2,1.7,2.2,4.8,0.5,6.8c-28.3,32.7-61.8,60.4-99.5,82.4c-35.8,20.9-76.6,37.3-121.3,48.8
			C591.2,724,590.8,724,590.4,724z"/>
	</g>
	<g>
		<path class="st1" d="M651.6,761.2c-1,0-2.1-0.3-2.9-1l-51.5-39.8c-2.1-1.6-2.5-4.6-0.9-6.7c1.6-2.1,4.6-2.5,6.7-0.9l45.8,35.4
			l15.5-57.3c0.4-1.4,1.4-2.5,2.7-3.1c1.3-0.6,2.8-0.6,4.1,0.1l56.5,28.6l4-62.3c0.1-1.4,0.8-2.7,1.9-3.5c1.1-0.8,2.6-1.1,3.9-0.8
			l61.8,14l-9-58.5c-0.4-2.6,1.4-5.1,4-5.5c2.6-0.4,5.1,1.4,5.5,4l10,65.5c0.2,1.6-0.3,3.2-1.5,4.2c-1.2,1.1-2.8,1.5-4.3,1.2
			l-63.2-14.4l-4.1,64c-0.1,1.6-1,3.1-2.4,3.9c-1.4,0.8-3.1,0.8-4.5,0.1l-57.7-29.2l-15.9,58.6c-0.4,1.5-1.6,2.8-3.1,3.3
			C652.6,761.1,652.1,761.2,651.6,761.2z"/>
	</g>
	<g>
		<path class="st1" d="M718.8,653.2c-0.4,0-0.8,0-1.2-0.1c-51.8-12.8-99.8-37-135.2-68.3c-2-1.8-2.2-4.8-0.4-6.8
			c1.8-2,4.8-2.2,6.8-0.4c34.3,30.2,80.9,53.7,131.2,66.1c2.6,0.6,4.1,3.2,3.5,5.8C722.9,651.7,721,653.2,718.8,653.2z"/>
	</g>
	<g>
		<path class="st1" d="M696,670c-1.9,0-3.7-1.2-4.5-3l-8.4-21.3l-34.9,23.5c-1.4,0.9-3.1,1.1-4.6,0.4c-1.5-0.7-2.6-2.1-2.8-3.7
			l-5.5-41.3l-38.5,13.9c-1.5,0.5-3.1,0.3-4.4-0.6c-1.3-0.9-2-2.4-2-4l0.5-44.4c0-2.6,2.2-4.8,4.8-4.8c0,0,0,0,0.1,0
			c2.7,0,4.8,2.2,4.8,4.8l-0.4,37.5l37.6-13.6c1.4-0.5,2.9-0.3,4.1,0.4c1.2,0.8,2.1,2,2.3,3.5l5.3,39.5l33.4-22.5
			c1.2-0.8,2.7-1,4.1-0.6c1.4,0.4,2.5,1.5,3,2.8l10.5,26.8c1,2.5-0.2,5.3-2.7,6.2C697.2,669.9,696.6,670,696,670z"/>
	</g>
	<g>
		<g>
			<g>
				<rect x="723.6" y="589.6" class="st1" width="9.6" height="10.8"/>
			</g>
			<g>
				<rect x="723.6" y="612.4" class="st1" width="9.6" height="10.8"/>
			</g>
		</g>
		<g>
			<g>
				<rect x="734.4" y="601.6" class="st1" width="10.8" height="9.6"/>
			</g>
			<g>
				<rect x="711.6" y="601.6" class="st1" width="10.8" height="9.6"/>
			</g>
		</g>
	</g>
	<g>
		<g>
			<g>
				<rect x="780" y="712" class="st1" width="9.6" height="10.8"/>
			</g>
			<g>
				<rect x="780" y="734.8" class="st1" width="9.6" height="10.8"/>
			</g>
		</g>
		<g>
			<g>
				<rect x="790.8" y="724" class="st1" width="10.8" height="9.6"/>
			</g>
			<g>
				<rect x="768" y="724" class="st1" width="10.8" height="9.6"/>
			</g>
		</g>
	</g>
	<g>
		<g>
			<g>
				<rect x="679.2" y="771.8" class="st1" width="7.2" height="8.6"/>
			</g>
			<g>
				<rect x="679.2" y="790" class="st1" width="7.2" height="8.6"/>
			</g>
		</g>
		<g>
			<g>
				<rect x="687.6" y="781.6" class="st1" width="8.6" height="7.2"/>
			</g>
			<g>
				<rect x="669.4" y="781.6" class="st1" width="8.6" height="7.2"/>
			</g>
		</g>
	</g>
	<rect x="669.6" y="589.6" class="st1" width="9.6" height="9.6"/>
	<rect x="694.8" y="740.8" class="st1" width="9.6" height="9.6"/>
	<rect x="656.4" y="563.2" class="st1" width="9.6" height="9.6"/>
	<g>
		<path class="st1" d="M697.2,568c-5.3,0-9.6-4.3-9.6-9.6c0-5.3,4.3-9.6,9.6-9.6c5.3,0,9.6,4.3,9.6,9.6
			C706.8,563.7,702.5,568,697.2,568z M697.2,553.6c-2.6,0-4.8,2.2-4.8,4.8c0,2.6,2.2,4.8,4.8,4.8c2.6,0,4.8-2.2,4.8-4.8
			C702,555.8,699.8,553.6,697.2,553.6z"/>
	</g>
</g>
<g>
	<path class="st1" d="M934.4,481.5c-0.1,0-0.2,0-0.2,0c-0.6,0-1.2-0.1-1.8-0.3c-1.9-0.7-3.2-2.3-3.5-4.3
		c-10.9-23.7-28.7-39.4-49.3-57.5l-3.2-2.8c-13.4-11.8-19.3-29.5-15.1-45.1c3.6-13.2,14.1-22.4,28.8-25.2c22.7-4.4,37,9.2,44.2,19.2
		c7.5-10.5,21.7-23.5,44.3-19.2l0,0c14.7,2.8,25.2,12,28.7,25.2c4.2,15.6-1.7,33.2-15.1,45l-2.8,2.5c-20.7,18.2-38.6,33.9-49.7,57.8
		c-0.3,2.1-1.8,3.8-3.9,4.4C935.3,481.4,934.8,481.5,934.4,481.5z M929.2,473.9C929.2,473.9,929.2,473.9,929.2,473.9
		C929.2,473.9,929.2,473.9,929.2,473.9z M898.5,356.3c-2,0-4.2,0.2-6.4,0.6c-10.6,2.1-17.9,8.3-20.4,17.5
		c-3.1,11.4,1.6,25.1,11.8,34.1l3.2,2.8c18.2,16.1,35.6,31.3,47.6,52.6c12.1-21.4,29.6-36.8,48-52.9l2.8-2.5
		c10.2-9,14.9-22.7,11.8-34.1c-2.5-9.2-9.7-15.4-20.4-17.5l0,0c-20.6-4-32.1,11.4-37.1,20.9c-0.3,0.5-0.4,0.8-0.7,1.2
		c-1,1.4-2.7,2.2-4.5,2.2c-1.8,0-3.4-0.9-4.4-2.4c-0.1-0.1-0.3-0.4-0.5-0.9C925.7,371,916,356.3,898.5,356.3z"/>
</g>
<g>
	<path class="st0" d="M367.2,617.8c-16.2,0-29.4-13.2-29.4-29.4c0-16.2,13.2-29.4,29.4-29.4c16.2,0,29.4,13.2,29.4,29.4
		C396.6,604.6,383.4,617.8,367.2,617.8z M367.2,569.8c-10.3,0-18.6,8.3-18.6,18.6c0,10.3,8.3,18.6,18.6,18.6
		c10.3,0,18.6-8.3,18.6-18.6C385.8,578.1,377.5,569.8,367.2,569.8z"/>
</g>
<g>
	<path class="st0" d="M1067.4,314.8c-16.2,0-29.4-13.2-29.4-29.4c0-16.2,13.2-29.4,29.4-29.4s29.4,13.2,29.4,29.4
		C1096.8,301.6,1083.6,314.8,1067.4,314.8z M1067.4,266.8c-10.3,0-18.6,8.3-18.6,18.6c0,10.3,8.3,18.6,18.6,18.6
		c10.3,0,18.6-8.3,18.6-18.6C1086,275.1,1077.7,266.8,1067.4,266.8z"/>
</g>
<g>
	<path class="st0" d="M2083.8,560.8c-16.2,0-29.4-13.2-29.4-29.4c0-16.2,13.2-29.4,29.4-29.4c16.2,0,29.4,13.2,29.4,29.4
		C2113.2,547.6,2100,560.8,2083.8,560.8z M2083.8,512.8c-10.3,0-18.6,8.3-18.6,18.6c0,10.3,8.3,18.6,18.6,18.6s18.6-8.3,18.6-18.6
		C2102.4,521.1,2094.1,512.8,2083.8,512.8z"/>
</g>
<g>
	<g>
		<g>
			<path class="st1" d="M1384.3,908.2h-296.7c-14.9,0-27.1-12.2-27.1-27.1v-237c0-4,3.2-7.2,7.2-7.2h336.5c4,0,7.2,3.2,7.2,7.2v237
				C1411.4,896,1399.3,908.2,1384.3,908.2z M1075,651.3v229.8c0,7,5.7,12.7,12.7,12.7h296.7c7,0,12.7-5.7,12.7-12.7V651.3H1075z"/>
		</g>
		<g>
			<path class="st1" d="M1424.5,651.3h-376.9c-7.3,0-13.2-5.9-13.2-13.2v-51.3c0-7.3,5.9-13.2,13.2-13.2h376.9
				c7.3,0,13.2,5.9,13.2,13.2v51.3C1437.7,645.4,1431.7,651.3,1424.5,651.3z M1048.7,636.9h374.5V588h-374.5V636.9z M1424.5,588
				L1424.5,588L1424.5,588z"/>
		</g>
		<g>
			<path class="st1" d="M1172.7,651.3c-4,0-7.2-3.2-7.2-7.2v-63.3c0-4,3.2-7.2,7.2-7.2s7.2,3.2,7.2,7.2v63.3
				C1179.9,648.1,1176.7,651.3,1172.7,651.3z"/>
		</g>
		<g>
			<path class="st1" d="M1301.6,651.3c-4,0-7.2-3.2-7.2-7.2v-63.3c0-4,3.2-7.2,7.2-7.2c4,0,7.2,3.2,7.2,7.2v63.3
				C1308.8,648.1,1305.6,651.3,1301.6,651.3z"/>
		</g>
		<g>
			<path class="st1" d="M1189.9,908.2c-4,0-7.2-3.2-7.2-7.2V644.1c0-4,3.2-7.2,7.2-7.2s7.2,3.2,7.2,7.2V901
				C1197.1,905,1193.9,908.2,1189.9,908.2z"/>
		</g>
		<g>
			<path class="st1" d="M1283.5,908.2c-4,0-7.2-3.2-7.2-7.2V644.1c0-4,3.2-7.2,7.2-7.2c4,0,7.2,3.2,7.2,7.2V901
				C1290.7,905,1287.5,908.2,1283.5,908.2z"/>
		</g>
	</g>
	<g>
		<g>
			<path class="st1" d="M1235.7,584.1c-0.2,0-0.4,0-0.7,0c-2.7-0.2-66.3-6.3-94.6-34.7c-13.9-13.9-21.2-27.8-21.7-41.2
				c-0.4-12.1,4.5-23.4,14.6-33.5c12.6-12.6,39.2-28.6,74.8,7c28.4,28.4,34.5,91.9,34.7,94.6c0.2,2.1-0.6,4.2-2.1,5.7
				C1239.4,583.4,1237.6,584.1,1235.7,584.1z M1165.6,474.4c-7.7,0-15.1,3.5-22,10.4c-7.2,7.2-10.7,14.9-10.4,22.8
				c0.4,9.7,6.2,20.4,17.4,31.6c19,19,58.9,26.8,76.8,29.4c-2.6-17.9-10.5-57.9-29.4-76.8C1186.3,480.2,1175.6,474.4,1165.6,474.4z"
				/>
		</g>
		<g>
			<path class="st1" d="M1236.3,584.1c-1.9,0-3.7-0.8-5.1-2.1c-1.5-1.5-2.3-3.6-2.1-5.7c0.2-2.7,6.3-66.3,34.7-94.6
				c35.6-35.6,62.1-19.7,74.8-7c10.1,10.1,15.1,21.4,14.6,33.5c-0.5,13.5-7.8,27.4-21.6,41.2c-28.4,28.4-91.9,34.5-94.6,34.7
				C1236.7,584.1,1236.5,584.1,1236.3,584.1z M1306.4,474.4c-10,0-20.8,5.8-32.4,17.5c-18.9,18.9-26.7,58.9-29.4,76.8
				c17.9-2.6,57.9-10.5,76.8-29.4c11.2-11.2,17.1-21.8,17.4-31.6c0.3-8-3.2-15.6-10.4-22.8C1321.5,477.9,1314.2,474.4,1306.4,474.4z
				"/>
		</g>
	</g>
</g>
<g>
	<g>
		<g>
			<path class="st1" d="M1520.6,411.4c-54.7,0-99.2-51.5-99.2-114.9c0-63.4,44.5-114.9,99.2-114.9c54.7,0,99.2,51.5,99.2,114.9
				C1619.8,359.8,1575.3,411.4,1520.6,411.4z M1520.6,193.6c-48.1,0-87.2,46.2-87.2,102.9s39.1,102.9,87.2,102.9
				c48.1,0,87.2-46.2,87.2-102.9S1568.7,193.6,1520.6,193.6z"/>
		</g>
		<g>
			<path class="st1" d="M1462.5,264.9c-0.9,0-1.7-0.2-2.6-0.6c-3-1.4-4.3-5-2.8-8c9.8-20.6,26.8-35.6,46.5-41.1
				c3.2-0.9,6.5,1,7.4,4.2c0.9,3.2-1,6.5-4.2,7.4c-16.4,4.6-30.6,17.2-38.9,34.7C1466.9,263.6,1464.7,264.9,1462.5,264.9z"/>
		</g>
		<g>
			<path class="st1" d="M1532.7,428.7h-24.2c-6.4,0-13.3-6.2-13.3-16.2c0-11.9,8.4-11.9,11.9-11.9h25.6c3.3,0,13.3,0,13.3,11.9
				C1546,422.5,1539.1,428.7,1532.7,428.7z M1504.9,410.2c-0.1,0.4-0.2,1.1-0.2,2.3c0,4.6,2.7,6.6,3.7,6.6h24.2c1.1,0,3.7-2,3.7-6.6
				c0-1.6-0.3-2-0.3-2c-0.4-0.3-2.4-0.3-3.4-0.3h-25.6C1506.4,410.2,1505.5,410.2,1504.9,410.2z"/>
		</g>
		<g>
			<path class="st1" d="M1548.3,555.4c-2.5,0-4.6-1.9-4.8-4.4c-1.2-14.3-6.8-21.2-13.8-29.9c-8-9.9-17-21.1-21.7-45.1
				c-5.4-27.9,7.7-53.3,8.3-54.4c1.2-2.3,4.1-3.2,6.5-2c2.3,1.2,3.2,4.1,2,6.5c-0.2,0.4-12.1,23.7-7.4,48.1
				c4.2,21.7,12.1,31.4,19.7,40.8c7.4,9.2,14.4,17.8,15.9,35.1c0.2,2.6-1.7,5-4.4,5.2C1548.6,555.4,1548.5,555.4,1548.3,555.4z"/>
		</g>
	</g>
	<g>
		<g>
			<path class="st1" d="M1406.8,453c-38.7,0-76.7-28.6-91.5-72.6c-8.6-25.7-8.2-52.7,1.3-76.2c9.6-23.8,27.3-41.1,49.8-48.6
				c15.6-5.3,32.6-5.4,49-0.3c3.2,1,4.9,4.3,4,7.5c-1,3.2-4.3,4.9-7.5,4c-14-4.3-28.4-4.2-41.6,0.2c-19.1,6.4-34.2,21.3-42.5,41.7
				c-8.4,20.8-8.8,44.9-1,67.8c15.8,47,61.1,74.4,100.9,61c15.7-5.3,28.7-16.2,37.5-31.5c1.6-2.9,5.3-3.9,8.2-2.2
				c2.9,1.7,3.9,5.3,2.2,8.2c-10.3,17.9-25.5,30.7-44.1,36.9C1423.4,451.7,1415.1,453,1406.8,453z"/>
		</g>
		<g>
			<path class="st1" d="M1339.8,343.2c-0.2,0-0.5,0-0.7,0c-3.3-0.4-5.6-3.4-5.2-6.7c2.4-20.2,12.5-37.6,27.6-47.9
				c2.7-1.9,6.5-1.1,8.3,1.6c1.9,2.7,1.1,6.5-1.6,8.3c-12.3,8.3-20.4,22.7-22.4,39.4C1345.4,341,1342.8,343.2,1339.8,343.2z"/>
		</g>
		<g>
			<path class="st1" d="M1422.9,467.2c-2.2,0-4.4-0.6-6.4-1.9c-3.1-1.9-5.5-5-6.7-8.8c-0.5-1.6-2.2-6.4,0.7-10.2
				c1.7-2.3,4.2-3.1,6.3-3.8l21.4-7.2c2.9-1,11.7-3.9,15.2,6.6c2.9,8.7-1.3,16.1-7,18c0,0,0,0,0,0l-20.2,6.8
				C1425.1,467,1424,467.2,1422.9,467.2z M1418.5,452.1c0.1,0.3,0.2,0.8,0.4,1.4c1.2,3.6,3.7,4.3,4.3,4.1l20.2-6.8
				c0.5-0.2,2.1-2.2,0.9-5.8c-0.2-0.7-0.4-1-0.6-1.2c-0.6,0-1.8,0.4-2.5,0.7l-21.4,7.2C1419.4,451.7,1418.9,451.9,1418.5,452.1z
				 M1444.8,455.3L1444.8,455.3L1444.8,455.3z"/>
		</g>
	</g>
	<g>
		<g>
			<path class="st1" d="M1635.5,423.1c-8.4,0-16.7-1.3-24.8-4.1c-10.1-3.4-19.3-8.8-27.3-16c-2.5-2.2-2.7-6-0.4-8.5
				c2.2-2.5,6-2.7,8.5-0.4c6.8,6.1,14.6,10.7,23.1,13.5c19.1,6.4,40.1,3.7,59.1-7.6c19.3-11.5,34.1-30.5,41.9-53.4
				c15.8-47-3.7-96.2-43.5-109.6c-13.2-4.5-27.6-4.5-41.6-0.2c-3.2,1-6.5-0.8-7.5-4c-1-3.2,0.8-6.5,4-7.5c16.4-5.1,33.3-4.9,49,0.3
				c46.1,15.5,69,71.5,51.1,124.8c-8.6,25.7-25.4,46.9-47.1,59.9C1665.7,418.8,1650.5,423.1,1635.5,423.1z"/>
		</g>
		<g>
			<path class="st1" d="M1702.4,313.3c-3,0-5.6-2.2-6-5.3c-2-16.7-10.2-31.1-22.4-39.4c-2.7-1.9-3.5-5.6-1.6-8.3
				c1.9-2.7,5.6-3.5,8.3-1.6c15.1,10.3,25.2,27.7,27.6,47.9c0.4,3.3-2,6.3-5.2,6.7C1702.9,313.3,1702.6,313.3,1702.4,313.3z"/>
		</g>
		<g>
			<path class="st1" d="M1619.2,437.3c-1.1,0-2.2-0.2-3.2-0.5l-20.2-6.8h0c-5.6-1.9-9.9-9.3-7-18c3.5-10.5,12.3-7.5,15.2-6.6
				l21.4,7.2c3.1,1.1,10.5,3.5,7,14C1630,433.8,1624.3,437.3,1619.2,437.3z M1598.9,420.9l20.2,6.8c0.5,0.2,3-0.5,4.3-4.1
				c0.2-0.6,0.3-1.1,0.4-1.4c-0.4-0.2-0.9-0.3-1.3-0.5l-21.4-7.2c-0.7-0.2-1.9-0.6-2.5-0.7c-0.1,0.2-0.3,0.5-0.6,1.2
				C1596.7,418.7,1598.3,420.7,1598.9,420.9z"/>
		</g>
	</g>
	<g>
		<path class="st1" d="M1569.7,548.3c-0.4,0-0.8-0.1-1.2-0.2c-2.6-0.7-4.1-3.3-3.4-5.8c0.1-0.4,9.7-38,7-69.6
			c-3.1-36,31.2-49,31.6-49.1c2.5-0.9,5.2,0.4,6.2,2.9c0.9,2.5-0.4,5.2-2.8,6.2l0,0c-1.1,0.4-27.8,10.7-25.3,39.3
			c2.9,33.2-6.8,71.2-7.3,72.8C1573.8,546.8,1571.8,548.3,1569.7,548.3z"/>
	</g>
	<g>
		<path class="st1" d="M1521.3,555.4c-2,0-3.8-1.2-4.5-3.2c-0.1-0.2-8.6-22.7-43.2-40c-38.9-19.5-42.5-51.9-42.7-53.3
			c-0.3-2.6,1.7-5,4.3-5.2c2.6-0.3,5,1.7,5.2,4.3c0.1,1.2,3.5,28.7,37.4,45.7c38.3,19.2,47.6,44.3,47.9,45.4
			c0.9,2.5-0.4,5.2-2.9,6.1C1522.4,555.3,1521.8,555.4,1521.3,555.4z"/>
	</g>
</g>
<g>
	<g>
		<g>
			<g>
				<path class="st1" d="M2258.8,295.2c-6.2,0-12.5-1.1-18.9-3.6c-31-11.9-39.9-46.5-32.6-73.1c8.2-29.9,42-64.4,43.5-65.9l2.5-2.5
					l71.6,27.5l0.2,3.5c0.1,2,2,50.3-11.9,78C2303.2,278.8,2282.4,295.2,2258.8,295.2z M2256,162.9c-7.8,8.4-32,35.8-38.3,58.6
					c-6.1,21.9,1,50.5,26.1,60.1c25,9.6,49.4-6.8,59.6-27.1c10.6-21.2,11-57.8,10.8-69.2L2256,162.9z"/>
			</g>
			<g>
				
					<rect x="2192.3" y="314.8" transform="matrix(0.3593 -0.9332 0.9332 0.3593 1129.2216 2285.2058)" class="st1" width="73.2" height="10.8"/>
			</g>
			<g>
				<path class="st1" d="M2246.5,371.6c-0.6,0-1.3-0.1-1.9-0.4l-61.6-23.7c-2.8-1.1-4.2-4.2-3.1-7c1.1-2.8,4.2-4.2,7-3.1l61.6,23.7
					c2.8,1.1,4.2,4.2,3.1,7C2250.7,370.3,2248.7,371.6,2246.5,371.6z"/>
			</g>
		</g>
		<g>
			<rect x="2220.9" y="195.2" class="st1" width="98.5" height="10.8"/>
		</g>
		<g>
			<path class="st1" d="M2241.9,237.4c-6.1,0-11.1-5-11.1-11.1s5-11.1,11.1-11.1c6.1,0,11.1,5,11.1,11.1S2248,237.4,2241.9,237.4z
				 M2241.9,223.6c-1.5,0-2.7,1.2-2.7,2.7s1.2,2.7,2.7,2.7c1.5,0,2.7-1.2,2.7-2.7S2243.4,223.6,2241.9,223.6z"/>
		</g>
		<g>
			<path class="st1" d="M2263.5,268.6c-6.1,0-11.1-5-11.1-11.1s5-11.1,11.1-11.1s11.1,5,11.1,11.1S2269.6,268.6,2263.5,268.6z
				 M2263.5,254.8c-1.5,0-2.7,1.2-2.7,2.7s1.2,2.7,2.7,2.7s2.7-1.2,2.7-2.7S2265,254.8,2263.5,254.8z"/>
		</g>
		<g>
			<path class="st1" d="M2286.9,232.6c-4.8,0-8.7-3.9-8.7-8.7c0-4.8,3.9-8.7,8.7-8.7s8.7,3.9,8.7,8.7
				C2295.6,228.7,2291.7,232.6,2286.9,232.6z M2286.9,221.2c-1.5,0-2.7,1.2-2.7,2.7s1.2,2.7,2.7,2.7c1.5,0,2.7-1.2,2.7-2.7
				S2288.4,221.2,2286.9,221.2z"/>
		</g>
	</g>
	<g>
		<g>
			<g>
				<path class="st1" d="M2407.1,248.8c-18.5,0-36.6-9.4-48.2-22.6c-20.6-23.2-31-70.4-31.5-72.4l-0.8-3.5l62.1-44.9l3,1.8
					c1.8,1,43.3,25.8,58.9,52.6c13.9,23.8,14.1,59.5-12.8,79C2428.1,245.8,2417.5,248.8,2407.1,248.8z M2338.7,155
					c2.8,11.1,12.5,46.4,28.2,64.1c15.1,17,42.8,26.7,64.6,11c21.7-15.7,21.3-45.1,9.8-64.8c-11.9-20.5-42.4-40.8-52.1-46.9
					L2338.7,155z"/>
			</g>
			<g>
				
					<rect x="2450.4" y="227" transform="matrix(0.8104 -0.5859 0.5859 0.8104 311.1775 1488.7878)" class="st1" width="10.8" height="73.2"/>
			</g>
			<g>
				<path class="st1" d="M2450.5,318c-1.7,0-3.3-0.8-4.4-2.2c-1.7-2.4-1.2-5.8,1.2-7.5l53.5-38.7c2.4-1.7,5.8-1.2,7.5,1.2
					c1.7,2.4,1.2,5.8-1.2,7.5l-53.5,38.7C2452.7,317.7,2451.6,318,2450.5,318z"/>
			</g>
		</g>
		<g>
			
				<rect x="2336" y="153.1" transform="matrix(0.9668 -0.2556 0.2556 0.9668 38.7332 615.0206)" class="st1" width="98.5" height="10.8"/>
		</g>
		<g>
			<path class="st1" d="M2419.2,187.3c-1.9,0-3.8-0.5-5.6-1.5c-2.6-1.5-4.4-3.9-5.2-6.8l0,0c-1.6-5.9,2-12,7.9-13.6
				c5.9-1.6,12,2,13.6,7.9c1.6,5.9-2,12-7.9,13.6C2421.1,187.1,2420.1,187.3,2419.2,187.3z M2419.2,173.5c-0.2,0-0.5,0-0.7,0.1
				c-1.4,0.4-2.3,1.9-1.9,3.3l0,0c0.2,0.7,0.6,1.3,1.3,1.6c0.6,0.4,1.3,0.5,2,0.3c1.4-0.4,2.3-1.9,1.9-3.3
				C2421.5,174.3,2420.4,173.5,2419.2,173.5z"/>
		</g>
		<g>
			<path class="st1" d="M2406.2,223c-1.9,0-3.8-0.5-5.6-1.5c-2.6-1.5-4.4-3.9-5.1-6.8c-0.8-2.9-0.4-5.9,1.1-8.4
				c1.5-2.6,3.9-4.4,6.8-5.1c2.9-0.8,5.9-0.4,8.4,1.1c2.6,1.5,4.4,3.9,5.1,6.8c0.8,2.9,0.4,5.9-1.1,8.4c-1.5,2.6-3.9,4.4-6.8,5.1
				C2408.2,222.8,2407.2,223,2406.2,223z M2406.3,209.1c-0.2,0-0.5,0-0.7,0.1c-0.7,0.2-1.3,0.6-1.6,1.3c-0.4,0.6-0.5,1.4-0.3,2v0
				c0.2,0.7,0.6,1.3,1.3,1.6c0.6,0.4,1.3,0.5,2,0.3c0.7-0.2,1.3-0.6,1.6-1.3c0.4-0.6,0.5-1.4,0.3-2c-0.2-0.7-0.6-1.3-1.3-1.6
				C2407.2,209.3,2406.7,209.1,2406.3,209.1z"/>
		</g>
		<g>
			<path class="st1" d="M2375.1,194c-3.9,0-7.4-2.6-8.4-6.5c-0.6-2.2-0.3-4.6,0.9-6.6c1.2-2,3-3.4,5.3-4c2.3-0.6,4.6-0.3,6.6,0.9
				c2,1.2,3.4,3,4,5.3c0.6,2.2,0.3,4.6-0.9,6.6c-1.2,2-3,3.4-5.3,4C2376.5,194,2375.8,194,2375.1,194z M2375.1,182.6
				c-0.2,0-0.5,0-0.7,0.1c-0.7,0.2-1.3,0.6-1.6,1.3c-0.4,0.6-0.5,1.4-0.3,2c0.4,1.4,1.9,2.3,3.3,1.9c0.7-0.2,1.3-0.6,1.6-1.3
				c0.4-0.6,0.5-1.4,0.3-2c-0.2-0.7-0.6-1.3-1.3-1.6C2376,182.8,2375.5,182.6,2375.1,182.6z"/>
		</g>
	</g>
	<g>
		<path class="st1" d="M2287.2,137.2c-1.5,0-2.9-0.7-3.9-2c0,0-0.2-0.3-0.6-0.8c-1.6-2.1-1.3-5.1,0.8-6.7c2.1-1.6,5.1-1.3,6.7,0.8
			c0.5,0.7,0.8,1.1,0.8,1.1c1.6,2.1,1.1,5.1-1.1,6.7C2289.2,136.9,2288.2,137.2,2287.2,137.2z M2269.6,119.2c-1.1,0-2.1-0.3-3-1.1
			c-4.7-3.8-9.5-6.9-14.2-9.2c-0.2-0.1-0.3-0.2-0.5-0.3c-0.2-0.1-0.3-0.1-0.5-0.2c-3.6-1.7-7.3-3-10.8-3.8c-2.6-0.6-4.2-3.2-3.6-5.7
			c0.6-2.6,3.2-4.2,5.7-3.6c4.2,1,8.5,2.5,12.8,4.5c0.2,0.1,0.4,0.2,0.6,0.3c0.2,0.1,0.4,0.1,0.6,0.2c5.4,2.6,10.7,6.1,16,10.3
			c2.1,1.7,2.4,4.7,0.7,6.7C2272.4,118.6,2271,119.2,2269.6,119.2z"/>
	</g>
	<g>
		<path class="st1" d="M2307.6,125.2c-2.4,0-4.4-1.7-4.8-4.2c-1.6-11.8-8.1-44.5-18.7-53.4c-2-1.7-2.3-4.7-0.6-6.8
			c1.7-2,4.7-2.3,6.8-0.6c15.4,12.8,21.4,54.7,22.1,59.4c0.4,2.6-1.5,5-4.1,5.4C2308,125.2,2307.8,125.2,2307.6,125.2z"/>
	</g>
	<g>
		<path class="st1" d="M2332.8,116.8c-2.4,0-4.4-1.8-4.8-4.2c-0.1-0.8-2.4-21,28.2-45.2c2.1-1.6,5.1-1.3,6.7,0.8
			c1.6,2.1,1.3,5.1-0.8,6.7c-25.8,20.5-24.6,36.3-24.6,36.5c0.4,2.6-1.5,5-4.1,5.4C2333.2,116.8,2333,116.8,2332.8,116.8z"/>
	</g>
	<rect x="2302.8" y="137.2" class="st1" width="16.8" height="16.8"/>
	<rect x="2253.6" y="71.2" class="st1" width="16.8" height="16.8"/>
	<rect x="2385.6" y="46" class="st1" width="16.8" height="16.8"/>
</g>
<g>
	<path class="st1" d="M2075.1,433c-8.1-0.6-16-2.8-23.2-6.5l6.5-12.8c5.6,2.8,11.6,4.5,17.8,5L2075.1,433z M2104.7,427.8l-5.9-13.1
		c5.7-2.6,10.7-6.2,14.9-10.8l10.6,9.8C2118.7,419.6,2112.1,424.4,2104.7,427.8z M2029.2,406.7c-2.6-3.8-4.8-7.9-6.4-12.2
		c-1.3-3.3-2.3-6.6-3-10l14.1-2.9c0.5,2.6,1.3,5.2,2.3,7.7c1.3,3.3,3,6.4,4.9,9.3L2029.2,406.7z M2138.6,387.2l-14-3.5
		c1-3.7,1.4-7.6,1.4-11.4c0-2.3-0.2-4.7-0.5-7l14.2-2.2c0.5,3,0.7,6.1,0.7,9.1C2140.5,377.3,2139.8,382.3,2138.6,387.2z M2035,358.7
		l-13.8-4.2c2.4-7.8,6.2-15,11.5-21.2l11.1,9.2C2039.8,347.2,2036.8,352.7,2035,358.7z M2116.6,344.1c-3.8-5-8.4-9.1-13.8-12.2
		l7.2-12.5c7.1,4.1,13.2,9.5,18.1,16L2116.6,344.1z M2062.4,329l-5.4-13.4l0.2-0.1c7.6-3,15.7-4.4,23.8-4.2l-0.4,14.4
		c-6.2-0.2-12.3,0.9-18.2,3.2L2062.4,329z"/>
</g>
<g>
	<g>
		<path class="st1" d="M2096.4,775.9h-442.6c-4,0-7.2-3.2-7.2-7.2V625.5c0-17,13.8-30.8,30.8-30.8h395.4c17,0,30.8,13.8,30.8,30.8
			v143.3C2103.6,772.7,2100.4,775.9,2096.4,775.9z M1661.1,761.5h428.2V625.5c0-9-7.3-16.4-16.4-16.4h-395.4
			c-9,0-16.4,7.3-16.4,16.4V761.5z"/>
	</g>
	<g>
		<path class="st1" d="M2029.9,606.7h-309.5c-4,0-7.2-3.2-7.2-7.2V456.2c0-17,13.8-30.8,30.8-30.8h262.4c17,0,30.8,13.8,30.8,30.8
			v143.3C2037.1,603.4,2033.9,606.7,2029.9,606.7z M1727.6,592.3h295.1V456.2c0-9-7.3-16.4-16.4-16.4h-262.4
			c-9,0-16.4,7.3-16.4,16.4V592.3z"/>
	</g>
	<g>
		<path class="st1" d="M1901.7,439.8h-45.9c-4,0-7.2-3.2-7.2-7.2V311.7c0-4,3.2-7.2,7.2-7.2h45.9c4,0,7.2,3.2,7.2,7.2v120.9
			C1908.9,436.6,1905.7,439.8,1901.7,439.8z M1863,425.4h31.5V318.9H1863V425.4z"/>
	</g>
	<g>
		<path class="st1" d="M1865.5,287.4c-2,0-4.1-0.9-5.5-2.5c-0.5-0.6-13.1-15.7-10.2-34.5c1.9-12.4,10-23.2,23.9-31.9
			c18.8-11.7,22.7-20.6,23.3-24.9c0.2-1.5,0.1-2.8-0.1-3.7c-0.9-1.8-1.5-2.9-1.5-2.9c-1.8-3.2-0.8-7.3,2.2-9.4
			c3-2.1,7.2-1.6,9.6,1.2c0.3,0.4,1.8,2.2,3,5.4c7.8,15.8,31.5,71-1.2,101.3c-2.9,2.7-7.5,2.5-10.2-0.4c-2.7-2.9-2.5-7.5,0.4-10.2
			c17.7-16.4,12.7-44.9,6-65c-5,7-13,14-23.9,20.8c-10.2,6.4-16.1,13.8-17.4,21.9c-1.9,12.1,6.9,22.9,6.9,23c2.6,3,2.2,7.6-0.8,10.1
			C1868.8,286.9,1867.1,287.4,1865.5,287.4z"/>
	</g>
	<g>
		<g>
			<path class="st1" d="M1686.6,694.4c-21.4,0-38.7-17.4-38.7-38.7c0-4,3.2-7.2,7.2-7.2s7.2,3.2,7.2,7.2c0,13.4,10.9,24.3,24.3,24.3
				s24.3-10.9,24.3-24.3c0-4,3.2-7.2,7.2-7.2s7.2,3.2,7.2,7.2C1725.3,677,1708,694.4,1686.6,694.4z"/>
		</g>
		<g>
			<path class="st1" d="M1749.6,694.4c-21.4,0-38.7-17.4-38.7-38.7c0-4,3.2-7.2,7.2-7.2s7.2,3.2,7.2,7.2c0,13.4,10.9,24.3,24.3,24.3
				c13.4,0,24.3-10.9,24.3-24.3c0-4,3.2-7.2,7.2-7.2s7.2,3.2,7.2,7.2C1788.4,677,1771,694.4,1749.6,694.4z"/>
		</g>
		<g>
			<path class="st1" d="M1812.7,694.4c-21.4,0-38.7-17.4-38.7-38.7c0-4,3.2-7.2,7.2-7.2s7.2,3.2,7.2,7.2c0,13.4,10.9,24.3,24.3,24.3
				c13.4,0,24.3-10.9,24.3-24.3c0-4,3.2-7.2,7.2-7.2c4,0,7.2,3.2,7.2,7.2C1851.4,677,1834.1,694.4,1812.7,694.4z"/>
		</g>
		<g>
			<path class="st1" d="M1875.7,694.4c-21.4,0-38.7-17.4-38.7-38.7c0-4,3.2-7.2,7.2-7.2c4,0,7.2,3.2,7.2,7.2
				c0,13.4,10.9,24.3,24.3,24.3c13.4,0,24.3-10.9,24.3-24.3c0-4,3.2-7.2,7.2-7.2c4,0,7.2,3.2,7.2,7.2
				C1914.5,677,1897.1,694.4,1875.7,694.4z"/>
		</g>
		<g>
			<path class="st1" d="M1938.8,694.4c-21.4,0-38.7-17.4-38.7-38.7c0-4,3.2-7.2,7.2-7.2c4,0,7.2,3.2,7.2,7.2
				c0,13.4,10.9,24.3,24.3,24.3s24.3-10.9,24.3-24.3c0-4,3.2-7.2,7.2-7.2c4,0,7.2,3.2,7.2,7.2C1977.5,677,1960.1,694.4,1938.8,694.4
				z"/>
		</g>
		<g>
			<path class="st1" d="M2001.8,694.4c-21.4,0-38.7-17.4-38.7-38.7c0-4,3.2-7.2,7.2-7.2c4,0,7.2,3.2,7.2,7.2
				c0,13.4,10.9,24.3,24.3,24.3c13.4,0,24.3-10.9,24.3-24.3c0-4,3.2-7.2,7.2-7.2s7.2,3.2,7.2,7.2
				C2040.6,677,2023.2,694.4,2001.8,694.4z"/>
		</g>
		<g>
			<path class="st1" d="M2064.9,694.4c-21.4,0-38.7-17.4-38.7-38.7c0-4,3.2-7.2,7.2-7.2s7.2,3.2,7.2,7.2c0,13.4,10.9,24.3,24.3,24.3
				c13.4,0,24.3-10.9,24.3-24.3c0-4,3.2-7.2,7.2-7.2s7.2,3.2,7.2,7.2C2103.6,677,2086.2,694.4,2064.9,694.4z"/>
		</g>
	</g>
	<g>
		<g>
			<path class="st1" d="M1751.2,525.1c-21,0-38-17.4-38-38.7c0-4,3.2-7.2,7.2-7.2s7.2,3.2,7.2,7.2c0,13.4,10.6,24.3,23.6,24.3
				c13,0,23.6-10.9,23.6-24.3c0-4,3.2-7.2,7.2-7.2c4,0,7.2,3.2,7.2,7.2C1789.2,507.8,1772.2,525.1,1751.2,525.1z"/>
		</g>
		<g>
			<path class="st1" d="M1812.9,525.1c-21,0-38-17.4-38-38.7c0-4,3.2-7.2,7.2-7.2c4,0,7.2,3.2,7.2,7.2c0,13.4,10.6,24.3,23.6,24.3
				c13,0,23.6-10.9,23.6-24.3c0-4,3.2-7.2,7.2-7.2s7.2,3.2,7.2,7.2C1850.9,507.8,1833.8,525.1,1812.9,525.1z"/>
		</g>
		<g>
			<path class="st1" d="M1874.5,525.1c-21,0-38-17.4-38-38.7c0-4,3.2-7.2,7.2-7.2s7.2,3.2,7.2,7.2c0,13.4,10.6,24.3,23.6,24.3
				c13,0,23.6-10.9,23.6-24.3c0-4,3.2-7.2,7.2-7.2s7.2,3.2,7.2,7.2C1912.6,507.8,1895.5,525.1,1874.5,525.1z"/>
		</g>
		<g>
			<path class="st1" d="M1936.2,525.1c-21,0-38-17.4-38-38.7c0-4,3.2-7.2,7.2-7.2s7.2,3.2,7.2,7.2c0,13.4,10.6,24.3,23.6,24.3
				c13,0,23.6-10.9,23.6-24.3c0-4,3.2-7.2,7.2-7.2c4,0,7.2,3.2,7.2,7.2C1974.2,507.8,1957.2,525.1,1936.2,525.1z"/>
		</g>
		<g>
			<path class="st1" d="M1997.9,525.1c-21,0-38-17.4-38-38.7c0-4,3.2-7.2,7.2-7.2c4,0,7.2,3.2,7.2,7.2c0,13.4,10.6,24.3,23.6,24.3
				c13,0,23.6-10.9,23.6-24.3c0-4,3.2-7.2,7.2-7.2c4,0,7.2,3.2,7.2,7.2C2035.9,507.8,2018.8,525.1,1997.9,525.1z"/>
		</g>
	</g>
	<g>
		<g>
			<path class="st1" d="M1843.8,910c-4,0-7.2-3.2-7.2-7.2V838c0-34.5-57.3-61.6-57.9-61.9c-3.6-1.7-5.2-6-3.5-9.6
				c1.7-3.6,6-5.2,9.6-3.5c2.7,1.3,66.2,31.2,66.2,74.9v64.8C1851,906.8,1847.8,910,1843.8,910z"/>
		</g>
		<g>
			<path class="st1" d="M1913.8,910c-4,0-7.2-3.2-7.2-7.2V838c0-43.7,63.5-73.7,66.2-74.9c3.6-1.7,7.9-0.1,9.6,3.5
				c1.7,3.6,0.1,7.9-3.5,9.6l0,0c-0.6,0.3-57.9,27.4-57.9,61.9v64.8C1921,906.8,1917.7,910,1913.8,910z"/>
		</g>
	</g>
</g>
<ellipse transform="matrix(0.7071 -0.7071 0.7071 0.7071 310.2415 1712.4929)" class="st0" cx="2222.3" cy="481.8" rx="72.5" ry="72.5"/>
<circle class="st0" cx="1261.2" cy="228.4" r="36"/>
<g>
	<g>
		<g>
			<rect x="250.4" y="205.9" class="st0" width="24" height="29.6"/>
		</g>
		<g>
			<rect x="250.4" y="268.4" class="st0" width="24" height="29.6"/>
		</g>
	</g>
	<g>
		<g>
			<rect x="278.8" y="240" class="st0" width="29.6" height="24"/>
		</g>
		<g>
			<rect x="216.3" y="240" class="st0" width="29.6" height="24"/>
		</g>
	</g>
</g>
<g>
	<g>
		<g>
			<rect x="1490" y="625.9" class="st0" width="24" height="29.6"/>
		</g>
		<g>
			<rect x="1490" y="688.4" class="st0" width="24" height="29.6"/>
		</g>
	</g>
	<g>
		<g>
			<rect x="1518.4" y="660" class="st0" width="29.6" height="24"/>
		</g>
		<g>
			<rect x="1455.9" y="660" class="st0" width="29.6" height="24"/>
		</g>
	</g>
</g>
<g>
	<g>
		<g>
			<rect x="2084" y="139.9" class="st0" width="24" height="29.6"/>
		</g>
		<g>
			<rect x="2084" y="202.4" class="st0" width="24" height="29.6"/>
		</g>
	</g>
	<g>
		<g>
			<rect x="2112.4" y="174" class="st0" width="29.6" height="24"/>
		</g>
		<g>
			<rect x="2049.9" y="174" class="st0" width="29.6" height="24"/>
		</g>
	</g>
</g>
<g>
	<g>
		<path class="st1" d="M451.5,539.2c-9.5,0-18.6-3.1-26.1-8.9c-10.5-8.1-16.5-20.4-16.5-33.7c0-23.5,19.1-42.6,42.6-42.6
			c23.5,0,42.6,19.1,42.6,42.6c0,13.3-6,25.5-16.5,33.7C470.1,536.1,461,539.2,451.5,539.2z M451.5,464.8
			c-17.5,0-31.8,14.3-31.8,31.8c0,9.9,4.5,19.1,12.3,25.1c5.6,4.4,12.4,6.7,19.5,6.7s13.9-2.3,19.5-6.7c7.8-6.1,12.3-15.2,12.3-25.1
			C483.3,479.1,469,464.8,451.5,464.8z"/>
	</g>
	<g>
		<path class="st1" d="M451.5,652c-13.8,0-25.1-11.2-25.2-25l-6-100.6c-0.1-1.5,0.4-2.9,1.5-4c1-1.1,2.4-1.7,3.9-1.7h3
			c1.2,0,2.4,0.4,3.3,1.1c5.6,4.4,12.4,6.7,19.5,6.7s13.9-2.3,19.5-6.7c0.9-0.7,2.1-1.1,3.3-1.1h3c1.5,0,2.9,0.6,3.9,1.7
			c1,1.1,1.5,2.5,1.5,4l-6,100.6C476.6,640.8,465.3,652,451.5,652z M431.6,534.3l5.5,92.2c0,0.1,0,0.2,0,0.3
			c0,7.9,6.5,14.4,14.4,14.4c7.9,0,14.4-6.5,14.4-14.4c0-0.1,0-0.2,0-0.3l5.5-92.2c-6.1,3.2-12.9,4.9-19.9,4.9
			C444.5,539.2,437.7,537.5,431.6,534.3z"/>
	</g>
	<g>
		<path class="st1" d="M485.1,511.6h-65.7c-3,0-5.4-2.4-5.4-5.4c0-3,2.4-5.4,5.4-5.4h65.7c3,0,5.4,2.4,5.4,5.4
			C490.5,509.2,488.1,511.6,485.1,511.6z"/>
	</g>
	<g>
		<path class="st1" d="M451.8,575.2c-3,0-5.4-2.4-5.4-5.4V559c0-3,2.4-5.4,5.4-5.4c3,0,5.4,2.4,5.4,5.4v10.8
			C457.2,572.8,454.8,575.2,451.8,575.2z"/>
	</g>
	<g>
		<path class="st1" d="M451.8,674.8c-3,0-5.4-2.4-5.4-5.4v-22.8c0-3,2.4-5.4,5.4-5.4c3,0,5.4,2.4,5.4,5.4v22.8
			C457.2,672.4,454.8,674.8,451.8,674.8z"/>
	</g>
</g>
<circle class="st2" cx="537" cy="227.8" r="205.8"/>
<g>
	<g>
		<g>
			<g>
				<rect x="605" y="120.4" class="st1" width="9.6" height="10.8"/>
			</g>
			<g>
				<rect x="605" y="143.2" class="st1" width="9.6" height="10.8"/>
			</g>
		</g>
		<g>
			<g>
				<rect x="593" y="132.4" class="st1" width="10.8" height="9.6"/>
			</g>
			<g>
				<rect x="615.8" y="132.4" class="st1" width="10.8" height="9.6"/>
			</g>
		</g>
	</g>
	<g>
		<g>
			<g>
				<rect x="403.4" y="308.8" class="st1" width="9.6" height="10.8"/>
			</g>
			<g>
				<rect x="403.4" y="331.6" class="st1" width="9.6" height="10.8"/>
			</g>
		</g>
		<g>
			<g>
				<rect x="391.4" y="320.8" class="st1" width="10.8" height="9.6"/>
			</g>
			<g>
				<rect x="414.2" y="320.8" class="st1" width="10.8" height="9.6"/>
			</g>
		</g>
	</g>
	<g>
		<g>
			<g>
				<rect x="469.4" y="84.2" class="st1" width="7.2" height="8.6"/>
			</g>
			<g>
				<rect x="469.4" y="102.4" class="st1" width="7.2" height="8.6"/>
			</g>
		</g>
		<g>
			<g>
				<rect x="459.5" y="94" class="st1" width="8.6" height="7.2"/>
			</g>
			<g>
				<rect x="477.8" y="94" class="st1" width="8.6" height="7.2"/>
			</g>
		</g>
	</g>
	
		<rect x="473" y="238" transform="matrix(-1 -1.224647e-16 1.224647e-16 -1 961.518 491.6)" class="st1" width="15.6" height="15.6"/>
	
		<rect x="686.6" y="214" transform="matrix(-1 -1.224647e-16 1.224647e-16 -1 1388.718 443.6)" class="st1" width="15.6" height="15.6"/>
	<g>
		<path class="st1" d="M728.4,427c-0.6,0-1.2-0.1-1.8-0.3l-178.2-70.7c-1.5-0.6-2.6-1.9-2.9-3.5c-0.3-1.6,0.2-3.2,1.3-4.4
			l107.5-107.5c1.1-1.1,2.8-1.6,4.4-1.3c1.6,0.3,2.9,1.4,3.5,2.9l70.7,178.2c0.7,1.8,0.3,3.8-1.1,5.2
			C730.9,426.5,729.6,427,728.4,427z M558.7,349.7l161.1,63.9l-63.9-161.1L558.7,349.7z"/>
	</g>
	<g>
		<path class="st1" d="M673.4,288.4h-55.2c-2.7,0-4.8-2.1-4.8-4.8c0-2.7,2.1-4.8,4.8-4.8h55.2c2.7,0,4.8,2.1,4.8,4.8
			C678.2,286.3,676,288.4,673.4,288.4z"/>
	</g>
	<g>
		<path class="st1" d="M683,317.2h-92.4c-2.7,0-4.8-2.1-4.8-4.8c0-2.7,2.1-4.8,4.8-4.8H683c2.7,0,4.8,2.1,4.8,4.8
			C687.8,315.1,685.6,317.2,683,317.2z"/>
	</g>
	<g>
		<path class="st1" d="M693.8,343.6H563c-2.7,0-4.8-2.1-4.8-4.8c0-2.7,2.1-4.8,4.8-4.8h130.8c2.7,0,4.8,2.1,4.8,4.8
			C698.6,341.5,696.4,343.6,693.8,343.6z"/>
	</g>
	<g>
		<path class="st1" d="M704.6,371.2H588.2c-2.7,0-4.8-2.1-4.8-4.8c0-2.7,2.1-4.8,4.8-4.8h116.4c2.7,0,4.8,2.1,4.8,4.8
			C709.4,369.1,707.2,371.2,704.6,371.2z"/>
	</g>
	<g>
		<path class="st1" d="M716,397.6h-63c-2.7,0-4.8-2.1-4.8-4.8c0-2.7,2.1-4.8,4.8-4.8h63c2.7,0,4.8,2.1,4.8,4.8
			C720.8,395.5,718.6,397.6,716,397.6z"/>
	</g>
	<g>
		<g>
			<path class="st1" d="M588.2,242.8c-1.9,0-3.8-1.2-4.5-3.1l-0.2-0.6c-0.9-2.5,0.3-5.3,2.8-6.2c2.5-0.9,5.3,0.3,6.2,2.8l0.2,0.6
				c0.9,2.5-0.3,5.3-2.8,6.2C589.3,242.7,588.7,242.8,588.2,242.8z"/>
		</g>
		<g>
			<path class="st1" d="M580.8,223.4c-1.9,0-3.8-1.2-4.5-3.1l-5.4-14.1c-0.1-0.2-0.1-0.3-0.2-0.5c-0.1-0.1-0.1-0.3-0.2-0.5
				l-7.2-18.8c-0.9-2.5,0.3-5.3,2.8-6.2c2.5-0.9,5.3,0.3,6.2,2.8l7.2,18.8c0.1,0.2,0.1,0.3,0.2,0.5c0.1,0.1,0.1,0.3,0.2,0.5
				l5.4,14.1c0.9,2.5-0.3,5.3-2.8,6.2C581.9,223.3,581.4,223.4,580.8,223.4z"/>
		</g>
		<g>
			<path class="st1" d="M562.5,175.5c-1.9,0-3.8-1.2-4.5-3.1l-0.4-0.9c-0.9-2.5,0.3-5.3,2.8-6.2c2.5-0.9,5.3,0.3,6.2,2.8l0.4,0.9
				c0.9,2.5-0.3,5.3-2.8,6.2C563.7,175.4,563.1,175.5,562.5,175.5z M555,155.7c-1.9,0-3.8-1.2-4.5-3.1l-5.4-14.1
				c-0.1-0.2-0.1-0.3-0.2-0.5c-0.1-0.1-0.1-0.3-0.2-0.5l-7.2-18.8c-0.9-2.5,0.3-5.3,2.8-6.2c2.5-0.9,5.3,0.3,6.2,2.8l7.2,18.8
				c0.1,0.2,0.1,0.3,0.2,0.5c0.1,0.1,0.1,0.3,0.2,0.5l5.4,14.1c0.9,2.5-0.3,5.3-2.8,6.2C556.2,155.6,555.6,155.7,555,155.7z"/>
		</g>
		<g>
			<path class="st1" d="M536.8,107.8c-1.9,0-3.8-1.2-4.5-3.1l-0.2-0.6c-0.9-2.5,0.3-5.3,2.8-6.2c2.5-0.9,5.3,0.3,6.2,2.8l0.2,0.6
				c0.9,2.5-0.3,5.3-2.8,6.2C537.9,107.7,537.3,107.8,536.8,107.8z"/>
		</g>
	</g>
	<g>
		<path class="st1" d="M563,270.4c-1.2,0-2.4-0.5-3.4-1.4l-0.9-0.8c-1.9-1.9-1.9-4.9-0.1-6.8c1.9-1.9,4.9-1.9,6.8-0.1l0.9,0.8
			c1.9,1.9,1.9,4.9,0.1,6.8C565.5,269.9,564.2,270.4,563,270.4z M544.9,252.8c-1.2,0-2.4-0.5-3.4-1.4l-12.9-12.6
			c-0.1-0.1-0.3-0.3-0.4-0.4c-0.2-0.1-0.3-0.3-0.5-0.4l-17.2-16.8c-1.9-1.9-1.9-4.9-0.1-6.8c1.9-1.9,4.9-1.9,6.8-0.1l17.2,16.8
			c0.1,0.1,0.3,0.3,0.4,0.4c0.2,0.1,0.3,0.3,0.5,0.4l12.9,12.6c1.9,1.9,1.9,4.9,0.1,6.8C547.4,252.3,546.2,252.8,544.9,252.8z
			 M501.1,210.1c-1.2,0-2.4-0.5-3.4-1.4l-0.9-0.8c-1.9-1.9-1.9-4.9-0.1-6.8c1.9-1.9,4.9-1.9,6.8-0.1l0.9,0.8
			c1.9,1.9,1.9,4.9,0.1,6.8C503.6,209.6,502.4,210.1,501.1,210.1z M483.1,192.5c-1.2,0-2.4-0.5-3.4-1.4l-12.9-12.6
			c-0.1-0.1-0.3-0.3-0.4-0.4c-0.2-0.1-0.3-0.3-0.5-0.4l-17.2-16.8c-1.9-1.9-1.9-4.9-0.1-6.8c1.9-1.9,4.9-1.9,6.8-0.1l17.2,16.8
			c0.1,0.1,0.3,0.3,0.4,0.4c0.2,0.1,0.3,0.3,0.5,0.4l12.9,12.6c1.9,1.9,1.9,4.9,0.1,6.8C485.6,192,484.3,192.5,483.1,192.5z
			 M439.3,149.7c-1.2,0-2.4-0.5-3.4-1.4l-0.9-0.8c-1.9-1.9-1.9-4.9-0.1-6.8c1.9-1.9,4.9-1.9,6.8-0.1l0.9,0.8
			c1.9,1.9,1.9,4.9,0.1,6.8C441.8,149.2,440.5,149.7,439.3,149.7z M421.2,132.1c-1.2,0-2.4-0.5-3.4-1.4l-7.1-6.9
			c-1.9-1.9-1.9-4.9-0.1-6.8c1.9-1.9,4.9-1.9,6.8-0.1l7.1,6.9c1.9,1.9,1.9,4.9,0.1,6.8C423.7,131.6,422.5,132.1,421.2,132.1z"/>
	</g>
	<g>
		<path class="st1" d="M542.6,300.4c-0.2,0-0.3,0-0.5,0l-1.2-0.1c-2.6-0.3-4.5-2.6-4.3-5.3c0.3-2.6,2.7-4.5,5.3-4.3l1.2,0.1
			c2.6,0.3,4.5,2.6,4.3,5.3C547.1,298.6,545,300.4,542.6,300.4z M517.5,297.7c-0.2,0-0.3,0-0.5,0l-17.9-1.9c-0.2,0-0.4-0.1-0.6-0.1
			c-0.2,0-0.4,0-0.6,0l-23.9-2.5c-2.6-0.3-4.5-2.6-4.3-5.3c0.3-2.6,2.6-4.5,5.3-4.3l23.9,2.5c0.2,0,0.4,0.1,0.6,0.1
			c0.2,0,0.4,0,0.6,0l17.9,1.9c2.6,0.3,4.5,2.6,4.3,5.3C522,295.9,519.9,297.7,517.5,297.7z M456.7,291.3c-0.2,0-0.3,0-0.5,0
			l-1.2-0.1c-2.6-0.3-4.5-2.6-4.3-5.3c0.3-2.6,2.6-4.5,5.3-4.3l1.2,0.1c2.6,0.3,4.5,2.6,4.3,5.3
			C461.2,289.4,459.1,291.3,456.7,291.3z M431.6,288.6c-0.2,0-0.3,0-0.5,0l-1.8-0.2c-2.6-0.3-4.5-2.6-4.3-5.3
			c0.3-2.6,2.6-4.5,5.3-4.3l1.8,0.2c2.6,0.3,4.5,2.6,4.3,5.3C436.1,286.8,434,288.6,431.6,288.6z"/>
	</g>
	<g>
		<path class="st1" d="M450.8,363.8c-0.7,0-1.4-0.2-2.1-0.5c-2.4-1.2-3.4-4-2.2-6.4c0.2-0.4,0.4-0.8,0.6-1.2
			c1.2-2.4,4.1-3.3,6.5-2.1c2.4,1.2,3.3,4.1,2.1,6.5c-0.2,0.3-0.3,0.6-0.5,1C454.3,362.8,452.6,363.8,450.8,363.8z M461.9,348.2
			c-1.2,0-2.5-0.5-3.4-1.4c-1.9-1.9-1.9-4.9,0-6.8c6-6,13.3-10.6,21.8-13.8c0.2-0.1,0.4-0.1,0.6-0.2c0.2-0.1,0.4-0.2,0.6-0.3
			c5.7-2.1,12-3.5,18.6-4.3c2.6-0.3,5,1.6,5.3,4.2c0.3,2.6-1.6,5-4.2,5.3c-5.9,0.7-11.4,1.9-16.4,3.7c-0.2,0.1-0.4,0.1-0.5,0.2
			c-0.2,0.1-0.3,0.2-0.5,0.2c-7.2,2.7-13.4,6.7-18.4,11.7C464.3,347.8,463.1,348.2,461.9,348.2z M525.8,331.6c-0.3,0-0.6,0-0.9-0.1
			c-0.1,0-0.4-0.1-1-0.2c-2.6-0.4-4.4-2.9-4-5.5c0.4-2.6,2.9-4.4,5.5-4c0.9,0.1,1.4,0.2,1.4,0.2c2.6,0.5,4.3,3,3.8,5.6
			C530,330,528,331.6,525.8,331.6z"/>
	</g>
	<g>
		<path class="st1" d="M629,227.2c-2.3,0-4.3-1.6-4.7-4c0,0-0.1-0.5-0.2-1.4c-0.3-2.6,1.5-5,4.1-5.4c2.6-0.3,5,1.5,5.4,4.1
			c0.1,0.6,0.1,0.9,0.1,1c0.5,2.6-1.3,5.1-3.9,5.5C629.5,227.2,629.2,227.2,629,227.2z M630,202.1c-0.3,0-0.7,0-1-0.1
			c-2.6-0.6-4.2-3.1-3.6-5.7c1.5-6.6,3.8-12.7,6.9-18.1c0.1-0.2,0.2-0.4,0.4-0.5c0.1-0.2,0.2-0.4,0.3-0.6
			c4.5-7.5,10.6-13.7,18.1-18.6c2.2-1.4,5.2-0.8,6.6,1.4c1.4,2.2,0.8,5.2-1.4,6.6c-6.3,4.1-11.4,9.3-15.1,15.5
			c-0.1,0.2-0.2,0.3-0.3,0.5c-0.1,0.2-0.2,0.3-0.2,0.5c-2.6,4.6-4.6,9.8-5.9,15.4C634.2,200.6,632.2,202.1,630,202.1z M669.8,159.8
			c-2,0-3.9-1.3-4.6-3.4c-0.8-2.5,0.6-5.2,3.1-6c0.4-0.1,0.8-0.3,1.2-0.4c2.5-0.8,5.2,0.7,6,3.2c0.8,2.5-0.7,5.2-3.2,6
			c-0.4,0.1-0.7,0.2-1.1,0.3C670.8,159.7,670.3,159.8,669.8,159.8z"/>
	</g>
</g>
<g>
	<path class="st1" d="M2481,910H-9c-4,0-7.2-3.2-7.2-7.2s3.2-7.2,7.2-7.2h2490c4,0,7.2,3.2,7.2,7.2S2485,910,2481,910z"/>
</g>
</svg>
