<?xml version="1.0" encoding="utf-8"?>
<!-- Generator: Adobe Illustrator 25.0.1, SVG Export Plug-In . SVG Version: 6.00 Build 0)  -->
<svg version="1.1" id="Camada_1" xmlns="http://www.w3.org/2000/svg" xmlns:xlink="http://www.w3.org/1999/xlink" x="0px" y="0px"
	 viewBox="0 0 1086.9 1265.2" style="enable-background:new 0 0 1086.9 1265.2;" xml:space="preserve">
<style type="text/css">
	.st0{fill:#E2C6AA;}
	.st1{fill:#EBBE8F;}
	.st2{fill:#F6C499;}
	.st3{opacity:0.44;fill:#F0B18B;enable-background:new    ;}
	.st4{fill:#48404E;}
	.st5{opacity:0.36;}
	.st6{fill:none;stroke:#FFFFFF;stroke-width:14.39;stroke-linecap:square;stroke-miterlimit:10;}
	.st7{fill:none;stroke:#E2C6AA;stroke-width:12;stroke-linecap:square;stroke-miterlimit:10;}
	.st8{opacity:0.19;fill:#363636;enable-background:new    ;}
	.st9{fill:#F5F5F5;}
	.st10{fill:none;stroke:#D4D4D4;stroke-width:21.85;stroke-linecap:square;stroke-miterlimit:10;}
	.st11{fill:url(#SVGID_1_);}
	.st12{fill:#303D38;}
	.st13{fill:#0E1110;}
	.st14{fill:#25302C;}
	.st15{fill:#FFFFFF;}
	.st16{fill:#BABABA;}
	.st17{fill:#EDEDED;}
	.st18{fill:#FFDAB5;}
	.st19{fill:#F2C494;}
</style>
<path class="st0" d="M0.1,759.3c-0.7-18.1,2.4-34.5,5.5-51.3c1-5.4,2.2-10.7,3.6-16c0.6-2.4,1.3-4.7,1.9-7
	c4.1-15,9.8-29.6,17.1-43.3c42.3-78.7,124.1-115.3,198.8-164.7c104.4-69.1,127.4-186.6,150.4-301.8c18.8-95,122.2-126.4,204.8-137.2
	c17.3-1.7,34.6-1.9,51.9-0.5c17.4,1.4,34.7,4.4,51.5,8.9c14.3,2.6,28.1,7.2,41.2,13.7c62.6,31,97.2,99.8,130.1,162.1
	c22.6,43.2,70.5,62,106.7,95.4c25.1,23,44.5,51.4,56.8,83.1c6.1,15.6,10.3,31.9,12.6,48.5c4.8,39,3.4,79.5-20.1,114.7
	c-9.3,13.8-21.2,25.8-35,35.1c-13.2,9-27.6,15.5-42.8,20.8c-43,15.1-89.1,17.9-130.5,41.9c-47,27.3-78,71-97.8,119.4
	c-28.2,67.7-46.1,137.3-92.1,197.9c-42.8,57.3-104.8,89.3-171.1,104.8c-14,3.5-28.2,6.3-42.6,8.1C151.4,1124.3,4.6,867.5,0.1,759.3z
	"/>
<path class="st0" d="M786.5,788c-10.8-14.6-10.4-34.3-3.3-50.7c10.8-24.9,37.1-46.1,65.8-38.1c15,4.2,24.9,17.9,26.8,32.9
	c1.9,19.8-6.6,39-20.8,52.6C832.7,805.8,801.8,807.7,786.5,788z"/>
<path class="st0" d="M141.3,380.7c-15.3-27.4-3.5-60.3,16.2-82.4c20.2-22.1,48.9-37.1,79.4-30.1c16,3.8,29.1,15,34.3,31
	c7.5,22.1,2.4,45.1-9.9,65.3c-17.9,27.7-48.4,46.1-80.6,41.7C163.8,404.5,149.3,395.9,141.3,380.7z"/>
<path class="st1" d="M324.5,732.2c0,0-60.2-10.1-53.5-49.7c7-41.6,53.5-26.3,53.5-26.3V732.2z"/>
<path class="st1" d="M342.2,645.1c0,0-59.7-10-53.5-49.7c6.5-41.7,53.5-26.2,53.5-26.2V645.1z"/>
<path class="st2" d="M1078.8,1265.2L981,1133.9c-6.9-9.2-11.9-19.7-14.8-30.9l-47.3-181c-18.1-69.2-45.4-135.7-81.1-197.6
	l-98.8-171.3c-12.2-21.1-30.9-37.6-53.3-47l-137.7-57.8l128.5,196.8l-61.9,172.7h-275c-21.5,0-39,17.5-39,39l0,0
	c0,21.2,17.2,38.4,38.4,38.4l0,0h137.8c20.5,0,39.4,11,49.5,28.9l80.3,142.4c38.2,54.7,84.3,103.6,136.7,145l48,53.8L1078.8,1265.2z
	"/>
<path class="st3" d="M884.7,1265.2L691,859.6l180.8,88L756,840.7l-54.2-50l-7.2-73.8l-18.2-185.5l-61.9,286.4H338.8
	c-21.2,0-38.4,17.2-38.4,38.4l0,0v0.6c0,21.2,17.2,38.4,38.4,38.4l0,0h137.9c20.5,0,39.4,11,49.5,28.9l80.3,142.4
	c38.2,54.7,84.3,103.6,136.7,144.9l48,53.8L884.7,1265.2z"/>
<path class="st4" d="M654.9,817.8L321,817.6c-11.8,0-21.4-9.6-21.4-21.4l0.4-636.5c0-11.8,9.6-21.4,21.4-21.4h0l333.8,0.2
	c11.8,0,21.4,9.6,21.4,21.4c0,0,0,0,0,0l-0.4,636.6C676.3,808.2,666.7,817.8,654.9,817.8z"/>
<path class="st4" d="M652.3,799.4l-328.7-0.2c-3.5,0-6.4-2.9-6.4-6.4l0.4-629.8c0-3.5,2.9-6.4,6.4-6.4c0,0,0,0,0,0l328.7,0.2
	c3.5,0,6.4,2.9,6.4,6.4l0,0L658.7,793C658.7,796.6,655.8,799.4,652.3,799.4C652.3,799.4,652.3,799.4,652.3,799.4z"/>
<g class="st5">
	<line class="st6" x1="337.6" y1="178.7" x2="409.1" y2="178.7"/>
	<line class="st6" x1="409" y1="773.8" x2="567" y2="773.9"/>
	<line class="st6" x1="602.7" y1="178.8" x2="638.5" y2="178.9"/>
	<line class="st6" x1="576.8" y1="178.8" x2="591.1" y2="178.8"/>
</g>
<line class="st7" x1="276.5" y1="138.9" x2="250.6" y2="139.2"/>
<line class="st7" x1="282.5" y1="123.7" x2="255" y2="96.8"/>
<line class="st7" x1="299" y1="116.5" x2="299" y2="90.6"/>
<polygon class="st8" points="675.4,349.7 675.4,584.1 376.1,584.1 323.8,624.6 322.5,584.1 300.5,584.1 300.5,349.7 "/>
<polygon class="st9" points="246.7,303.6 833.5,303.6 833.5,537.9 394,537.9 341.7,578.5 340.4,537.9 246.7,537.9 "/>
<line class="st10" x1="481.9" y1="400.2" x2="767.2" y2="400.2"/>
<line class="st10" x1="481.9" y1="432.5" x2="690.2" y2="432.5"/>
<linearGradient id="SVGID_1_" gradientUnits="userSpaceOnUse" x1="345.3618" y1="249.4264" x2="387.1218" y2="90.7464" gradientTransform="matrix(1 0 0 -1 6.577668e-02 572.7703)">
	<stop  offset="0" style="stop-color:#FFE887"/>
	<stop  offset="0.17" style="stop-color:#FDDF7B"/>
	<stop  offset="0.49" style="stop-color:#F8C65D"/>
	<stop  offset="0.9" style="stop-color:#EF9E2B"/>
	<stop  offset="1" style="stop-color:#ED931D"/>
</linearGradient>
<path class="st11" d="M304.5,414.9c0.1-36,29.3-65,65.3-64.9c36,0.1,65,29.3,64.9,65.3s-29.3,65-65.3,64.9
	C333.4,480.1,304.4,450.9,304.5,414.9z"/>
<path class="st12" d="M367.2,401.9c0,0-1.8-8.7,2.3-11.9c1.5-1.1,9.6-1,13.3,1.2c-3.9,6.4-10.9,12.2-10.9,12.2L367.2,401.9z"/>
<path class="st13" d="M371.4,403c0,0,6.2-17.3,11.9-11.5c2,2.1,0.9,5.2-2.9,7.9C377.7,401.3,374.6,402.5,371.4,403z"/>
<path class="st14" d="M370.6,405.6c0,0,5.1-22.6,16.8-26.7c-3.5-0.9-7.3-7.6-7.3-7.6s-14.7,11.6-15.1,27.2S370.6,405.6,370.6,405.6z
	"/>
<path class="st12" d="M370.6,405.6c0,0,4.8-12.9-12.9-39.6c-1.3,1.8-10.8,6.9-10.8,6.9s14.5,11.1,14.2,26.8S370.6,405.6,370.6,405.6
	z"/>
<path class="st14" d="M363.5,387.7l-10.4-0.1l0.1,0.1c-0.2,0-0.4,0-0.5,0c-3.7,0.3-8.6,7.4,9.3,15.2h9.4L363.5,387.7z"/>
<path class="st13" d="M371.4,403c0,0-0.8-11.5-4.8-14.6S353.1,392.3,371.4,403z"/>
<polygon class="st15" points="337.7,406.4 399.9,406.4 398,453.9 340,453.9 "/>
<polygon class="st16" points="338.1,414.6 399.6,414.6 399.9,406.4 337.7,406.4 "/>
<rect x="336.4" y="402.4" class="st17" width="64.8" height="10.1"/>
<rect x="360.2" y="402.4" class="st14" width="14.4" height="51.6"/>
<path class="st2" d="M864.8,1224.2l-89-50.1C697.6,1132,644.4,1055,632.7,967l0,0c-4.6-34.6-25.1-65.1-55.4-82.5l-104.8-74.5
	c-22.2-17.4-26.5-49.4-9.7-72.1l0,0c14.7-19.7,41.1-26.5,63.4-16.3l11.8,5.4c58.3,26.7,113.8,59.2,165.5,97.1l168.4,123.4
	L864.8,1224.2z"/>
<path class="st18" d="M473.3,799.1c-18.4-14.4-21.9-40.8-8-59.6c8.1-10.9,20.9-17.3,34.5-17.4c6.2,0,12.3,1.3,17.9,3.9l20.7,9.5
	l-49.3,74.8L473.3,799.1z"/>
<path class="st19" d="M499.8,723.4c6,0,11.9,1.3,17.4,3.8l19.5,8.9l-47.9,72.7L474,798.2c-17.9-14-21.3-39.7-7.8-57.9
	C474.1,729.7,486.6,723.4,499.8,723.4 M499.8,721.1c-14,0-27.1,6.6-35.5,17.8l0,0c-14.3,19.3-10.7,46.4,8.2,61.2l16.9,12l50.7-77
	l-22-10C512.4,722.5,506.1,721.1,499.8,721.1L499.8,721.1z"/>
</svg>
