<?xml version="1.0" encoding="utf-8"?>
<!-- Generator: Adobe Illustrator 25.0.1, SVG Export Plug-In . SVG Version: 6.00 Build 0)  -->
<svg version="1.1" id="Camada_1" xmlns="http://www.w3.org/2000/svg" xmlns:xlink="http://www.w3.org/1999/xlink" x="0px" y="0px"
	 viewBox="0 0 1200 1187.7" style="enable-background:new 0 0 1200 1187.7;" xml:space="preserve">
<style type="text/css">
	.st0{fill:#E5D7CA;}
	.st1{fill:#EFE7DF;}
	.st2{fill:#F8F5F1;}
	.st3{fill:#E0D0C1;}
	.st4{fill:#FBF9F7;}
	.st5{fill:#FFFFFF;}
	.st6{opacity:0.61;fill:#E0D0C1;enable-background:new    ;}
	.st7{fill:#FFC3BD;}
	.st8{fill:#E47900;}
	.st9{fill:#E88A21;}
	.st10{fill:#E7881C;}
	.st11{fill:#FBEBD9;}
	.st12{fill:#F29994;}
	.st13{fill:#0F264C;}
	.st14{fill:#F7D7B3;}
	.st15{fill:#F4C794;}
	.st16{fill:#ED847E;}
	.st17{fill:#FF5652;}
</style>
<rect x="-213.8" y="1036.3" class="st0" width="1676.2" height="0.8"/>
<rect x="1186.4" y="1061.8" class="st0" width="93.6" height="0.8"/>
<rect x="645" y="1061.8" class="st0" width="76.8" height="0.8"/>
<rect x="271.1" y="1076.1" class="st0" width="277.3" height="0.8"/>
<rect x="10.5" y="1070.3" class="st0" width="163.1" height="0.8"/>
<rect x="868" y="1061.8" class="st0" width="285.9" height="0.8"/>
<path class="st1" d="M931.9,708.4L931.9,708.4c-1.8,0-3.7,0-5.6,0.2c-39.3,2.7-71.1,34.7-73.6,74c-0.6,8.7,0.3,17.4,2.6,25.8
	c9,33.6,12.4,68.6,12.4,103.4v101.5c0,7.4,6,13.3,13.3,13.3c0,0,0,0,0,0h322.2V708.4H931.9z"/>
<path class="st2" d="M1282.6,787.8c0-43.8-35.5-79.4-79.4-79.4c-1.9,0-3.7,0.1-5.6,0.2c-39.3,2.7-71.1,34.7-73.6,74
	c-0.6,8.7,0.3,17.4,2.6,25.8c9.1,33.6,12.4,68.6,12.4,103.4v101.5c0,7.4,6,13.3,13.3,13.3h101.7c7.4,0,13.3-6,13.3-13.3V905.9
	c0-32.7,3.6-65.4,12.3-96.8C1281.6,802.1,1282.6,795,1282.6,787.8z"/>
<rect x="642.1" y="833.5" class="st1" width="451.8" height="193.2"/>
<path class="st3" d="M421,602h513.8c9.9,0,17.9,8,17.9,17.9l0,0v257.2l0,0H403.1l0,0V620C403.1,610.1,411.1,602,421,602
	C421,602,421,602,421,602z"/>
<path class="st2" d="M495.7,602h515.5c9.4,0,17,7.6,17,17.1l0,0v258.1l0,0H478.7l0,0V619.1C478.7,609.7,486.3,602,495.7,602z"/>
<path class="st3" d="M657.4,815.8h445c2.9,0,5.2,2.3,5.2,5.2v68.2c0,2.9-2.3,5.2-5.2,5.2h-445c-0.9,0-1.5-0.7-1.5-1.6l0,0v-75.6
	C655.8,816.5,656.5,815.8,657.4,815.8z"/>
<path class="st1" d="M374.5,708.4L374.5,708.4c-1.8,0-3.7,0-5.6,0.2c-39.3,2.7-71.1,34.7-73.6,74c-0.6,8.7,0.3,17.4,2.5,25.8
	c9.1,33.6,12.4,68.6,12.4,103.4v101.5c0,7.4,6,13.3,13.3,13.3h322.2V708.4H374.5z"/>
<path class="st2" d="M725.2,787.8c0-43.8-35.5-79.4-79.4-79.4c-1.9,0-3.7,0.1-5.6,0.2c-39.3,2.7-71.1,34.7-73.6,74
	c-0.6,8.7,0.3,17.4,2.5,25.8c9.1,33.6,12.5,68.6,12.5,103.4v101.5c0,7.3,6,13.3,13.3,13.3h101.8c7.4,0,13.3-6,13.3-13.3c0,0,0,0,0,0
	V905.9c0-32.7,3.6-65.4,12.3-96.8C724.3,802.1,725.2,795,725.2,787.8z"/>
<path class="st3" d="M1197.6,1036.3H380.2c-5.3,0-9.7-4.3-9.7-9.7h836.7C1207.2,1032,1202.9,1036.3,1197.6,1036.3z"/>
<rect x="-52" y="795" class="st1" width="89.6" height="226.9"/>
<rect x="-34.8" y="1021.9" class="st1" width="442" height="14.4"/>
<rect x="37.6" y="795" class="st2" width="386.8" height="226.9"/>
<rect x="72.8" y="822.9" class="st1" width="316.3" height="74.4"/>
<rect x="72.8" y="919.5" class="st1" width="316.3" height="74.4"/>
<path class="st2" d="M270.1,829.8h-78.3c-2.8,0-5.1-2.3-5.1-5.1l0,0c0-2.8,2.3-5.1,5.1-5.1h78.3c2.8,0,5.1,2.3,5.1,5.1l0,0
	C275.2,827.5,272.9,829.8,270.1,829.8z"/>
<path class="st2" d="M270.1,926.5h-78.3c-2.8,0-5.1-2.3-5.1-5.1l0,0c0-2.8,2.3-5.1,5.1-5.1h78.3c2.8,0,5.1,2.3,5.1,5.1l0,0
	C275.2,924.2,272.9,926.5,270.1,926.5z"/>
<rect x="299.7" y="12.3" class="st0" width="630.6" height="453"/>
<rect x="304.7" y="12.3" class="st2" width="636.3" height="453"/>
<rect x="299.7" y="465.2" class="st0" width="630.6" height="10.2"/>
<rect x="376.1" y="465.2" class="st2" width="613.1" height="10.2"/>
<rect x="319.4" y="31.5" class="st4" width="606.7" height="414.5"/>
<polygon class="st5" points="484.6,446 571.4,31.5 682.2,31.5 595.3,446 "/>
<polygon class="st5" points="626.7,446 713.5,31.5 764.9,31.5 678.1,446 "/>
<rect x="924.2" y="28.9" class="st0" width="1.9" height="373.8"/>
<path class="st0" d="M288.6,11.6v161.3h42.7c0,0,76.7-50,94.1-152.9c1.6-9.3-4.7-18.2-14-19.8c-0.9-0.2-1.9-0.2-2.9-0.2H300.2
	C293.8,0,288.6,5.2,288.6,11.6z"/>
<path class="st0" d="M288.6,431.4V185.9h42.7c0,0,24.5,49.6,49,106.6C408.5,358.2,360.2,431.5,288.6,431.4L288.6,431.4z"/>
<path class="st2" d="M287.2,172.9H333c0.7,0,1.3,0.6,1.3,1.3v10.5c0,0.7-0.6,1.3-1.3,1.3h-45.8c-0.7,0-1.3-0.6-1.3-1.3v-10.5
	C285.9,173.5,286.5,172.9,287.2,172.9z"/>
<path class="st0" d="M953,11.6v161.3h-42.7c0,0-76.7-50-94.1-152.9c-1.6-9.3,4.6-18.2,14-19.8c0.9-0.2,1.9-0.2,2.9-0.2h108.3
	C947.8,0,953,5.2,953,11.6z"/>
<path class="st0" d="M953,431.4V185.9h-42.7c0,0-24.5,49.6-49,106.6C833.1,358.2,881.4,431.5,953,431.4L953,431.4z"/>
<path class="st2" d="M954.4,185.9h-45.8c-0.7,0-1.3-0.6-1.3-1.3v-10.5c0-0.7,0.6-1.3,1.3-1.3h45.8c0.7,0,1.3,0.6,1.3,1.3v10.5
	C955.7,185.3,955.1,185.9,954.4,185.9z"/>
<rect x="1049.8" y="63.9" class="st0" width="209.4" height="312.8"/>
<rect x="1055.2" y="63.9" class="st2" width="234.3" height="312.8"/>
<rect x="1079.4" y="88" class="st5" width="186" height="264.4"/>
<path class="st0" d="M1154.5,245.6v-15c0-19.7,16-35.7,35.7-35.7c0,0,0,0,0,0l0,0v15C1190.2,229.6,1174.2,245.6,1154.5,245.6
	L1154.5,245.6z"/>
<path class="st0" d="M1154.5,316.9v-15c0-19.7,16-35.7,35.7-35.7c0,0,0,0,0,0l0,0v15C1190.2,301,1174.2,316.9,1154.5,316.9
	L1154.5,316.9z"/>
<path class="st0" d="M1154.5,174.3v-15.1c0-19.7,16-35.7,35.7-35.7c0,0,0,0,0,0l0,0v15C1190.2,158.3,1174.2,174.3,1154.5,174.3
	L1154.5,174.3L1154.5,174.3z"/>
<path class="st0" d="M91.6,734.8c8.5-87.7,16.1-332.7,11.1-376.6L91,349.6c0,0,3.6,160-2.7,294.3s-0.9,70.9-3.6,90.9H91.6z"/>
<path class="st0" d="M124.4,560.3c23.7-18.6,72-31.8,121.2-31.7c19.3,0-58.8,21.6-91.3,45.4c-25.2,18.5-53.7,49.6-63.4,66.9
	C97.2,604.6,100.7,578.9,124.4,560.3z"/>
<path class="st0" d="M77.5,587.8c-19.6-19.3-65-34.2-114-35.9c-19.3-0.7,54,23.6,81.4,48.5c21.2,19.3,43,51.3,49,68.9
	C95.3,632.9,97.1,607.2,77.5,587.8z"/>
<path class="st0" d="M125.4,429.3c20-15.7,60.9-26.9,102.6-26.9c16.4,0-49.8,18.3-77.3,38.5c-21.4,15.7-45.5,42-53.7,56.7
	C102.4,466.8,105.4,445.1,125.4,429.3z"/>
<path class="st0" d="M85.7,452.6c-16.6-16.4-55-29-96.6-30.4c-16.3-0.6,45.7,20,68.9,41.1c18,16.4,36.4,43.5,41.5,58.3
	C100.8,490.8,102.4,469,85.7,452.6z"/>
<path class="st0" d="M95.4,332.8c-11.8-13.3-40.5-24.7-72.2-27.6c-12.4-1.1,33.9,17.4,50.5,34.6c12.9,13.4,25.5,35,28.6,46.7
	C104.8,362.8,107.2,346.1,95.4,332.8z"/>
<path class="st0" d="M103.1,341.7c8.6-11.5,28.9-21.5,51.2-24.3c8.7-1.1-24.1,15.2-36,30c-9.3,11.6-18.6,30.2-20.9,40.2
	C95.9,367.4,94.6,353.2,103.1,341.7z"/>
<path class="st1" d="M90.1,795L90.1,795c25.9,0,47.3-20.2,48.8-46.1l4.3-41.2H36.9l4.3,41.2C42.7,774.8,64.2,795,90.1,795z"/>
<polygon class="st1" points="30.1,724.7 150.1,724.7 153.5,693.6 26.6,693.6 "/>
<ellipse class="st6" cx="624.3" cy="1149.7" rx="650" ry="38"/>
<polygon class="st7" points="627,1094.2 604.3,1085.2 619.1,1030.2 641.8,1039.2 "/>
<polygon class="st7" points="855.1,1119.4 830.7,1119.4 811.7,1062.9 836.1,1062.9 "/>
<path class="st8" d="M827.4,1116.6h29.8c1,0,1.9,0.7,2.1,1.7l4.8,21.7c0.4,1.9-0.8,3.8-2.7,4.3c-0.3,0.1-0.5,0.1-0.8,0.1
	c-9.6-0.2-16.6-0.7-28.6-0.7c-7.4,0-29.8,0.8-40.1,0.8c-10,0-11.6-10.1-7.4-11c18.8-4.1,33-9.8,39-15.2
	C824.5,1117.2,826,1116.6,827.4,1116.6z"/>
<path class="st8" d="M605.5,1082.7l24.8,9.8c0.9,0.4,1.5,1.3,1.3,2.3l-3.5,22c-0.3,1.9-2.1,3.3-4,3c-0.3,0-0.6-0.1-0.8-0.2
	c-8.9-3.7-21.6-9.3-32.9-13.8c-13.1-5.2-24.8-9-40.2-15.1c-9.3-3.7-8.2-14.1-3.9-13.4c19.3,3.1,34,8.5,53.1,5.1
	C601.4,1081.8,603.5,1082,605.5,1082.7z"/>
<path class="st7" d="M774.9,384.6c-2.3,1.8-4.1,3.2-6.1,4.7s-4,2.8-6,4.2c-4,2.7-8.1,5.4-12.2,7.9c-8.4,5.1-17,9.7-26,13.7
	c-9.3,4.2-19,7.4-29,9.7c-10.3,2.2-21.5,3.5-33.3,1.7c-3-0.5-6-1.1-9-2c-4.9-1.5-9.3-4.3-12.8-8.1c-5.2-5.6-7.7-10.6-10.1-15.5
	c-4.5-9.7-7.2-18.9-9.7-28.1c-4.5-18.2-7.6-36.7-9-55.4l18-3.4c5.6,16.8,11.4,34,17.9,50c3,7.7,6.5,15.1,10.6,22.3
	c1.4,2.5,3.2,4.8,5.3,6.8c0.5,0.4,0.6-0.1-1.5-0.8c1.2,0.1,2.8,0.5,4.3,0.5c6.2,0.4,13.3-0.6,20.7-2.6c7.6-2.2,15-5.1,22.2-8.6
	c7.5-3.6,14.8-7.6,21.9-12c3.6-2.2,7.2-4.5,10.7-6.9l5.2-3.6c1.7-1.2,3.5-2.5,4.8-3.5L774.9,384.6z"/>
<path class="st9" d="M790.2,378.6c-5.9,22.6-79.1,47.9-79.1,47.9l-22.5-50.8c0,0,29.7-15.7,57.2-28.1
	C764.2,339.2,796.6,354,790.2,378.6z"/>
<path class="st7" d="M629.9,318l0.6-21.8l-26.5,7.9c0.6,7.4,4.3,14.3,10.2,18.8L629.9,318z"/>
<polygon class="st7" points="631.8,281.1 606.3,289.8 604,304.1 630.5,296.2 "/>
<path class="st10" d="M626.9,332.7l25.1-5.5c1.5-0.3,2.5-1.8,2.2-3.3c0-0.2-0.1-0.3-0.2-0.5l-21.8-58.2c-0.7-1.7-2.5-2.7-4.3-2.4
	l-25.1,5.6c-1.5,0.3-2.5,1.8-2.2,3.3c0,0.2,0.1,0.4,0.2,0.5l21.8,58.2C623.3,332.1,625.1,333.1,626.9,332.7z"/>
<path class="st9" d="M630,332l25.1-5.6c1.5-0.3,2.5-1.8,2.2-3.3c0-0.2-0.1-0.3-0.2-0.5l-21.8-58.2c-0.7-1.7-2.5-2.7-4.3-2.4
	l-25.1,5.5c-1.5,0.3-2.5,1.8-2.2,3.3c0,0.2,0.1,0.3,0.2,0.5l21.8,58.2C626.3,331.4,628.2,332.4,630,332z"/>
<polygon class="st11" points="604.6,273.5 614.4,299.6 615.3,302 619.7,313.8 620.6,316.3 624.2,325.7 655.6,318.7 654.8,316.4 
	653.8,314 645.4,291.3 642.7,284.2 636.1,266.5 625.6,268.8 623,269.4 608.7,272.5 606.5,273 "/>
<path class="st9" d="M625.5,280l-3.5,28.2c0,0.4,0.2,0.8,0.7,0.8c0.1,0,0.2,0,0.3,0l22.2-5.1c0.4-0.1,0.7-0.5,0.6-0.9
	c0-0.1-0.1-0.2-0.1-0.3l-18.7-23.1c-0.3-0.3-0.7-0.4-1.1-0.1C625.7,279.7,625.6,279.8,625.5,280z"/>
<path class="st5" d="M634.2,300.8c0.3,1.2-0.1,2.3-1,2.5s-1.9-0.6-2.2-1.8s0.1-2.3,1-2.5S633.8,299.7,634.2,300.8z"/>
<path class="st5" d="M632.1,297.1l-1.4,0.3c-0.4,0-0.7-0.2-0.8-0.5l-2.8-7.7c-0.2-0.4,0-0.8,0.3-0.9l2.4-0.5
	c0.3-0.1,0.7,0.2,0.8,0.7l1.8,7.9C632.6,296.7,632.4,297,632.1,297.1z"/>
<polygon class="st12" points="619.1,1030.2 611.5,1058.6 634.2,1067.6 641.8,1039.2 "/>
<polygon class="st12" points="836.1,1062.9 811.7,1062.9 821.5,1092.1 845.9,1092.1 "/>
<path class="st9" d="M888.9,368.4c-10.4,26-18.1,52.8-24.1,78.2c-4.3,18.6-7.7,36.4-10.3,52.6c-6.2,38-8.5,67.2-10.7,76.9
	C825,572.6,754,559.9,715.2,553C712.6,413,754,345.4,754,345.4c10.5-0.8,21-1,31.4-0.5c2.2,0.1,4.5,0.3,6.7,0.5
	c14.7,1.3,38.4,6.1,54.7,9.8c3.4,0.8,6.9,1.7,10.2,2.6C874,362.5,888.9,368.4,888.9,368.4z"/>
<path class="st8" d="M852.4,399.8c-2.4,19.9,1.1,40,10,57.9c0.8-3.7,1.6-7.3,2.5-11.1c3.3-14,7.1-28.3,11.6-42.8L852.4,399.8z"/>
<path class="st7" d="M852.4,292.7c-6.6,17-15.8,48.6-5.6,62.5c-10.7,7.7-25.5,13.2-45.2,9.2c-15.1-3-13.9-13.8-9.5-19
	c20.5-1.2,22.6-15.8,21.6-30.1L852.4,292.7z"/>
<path class="st12" d="M836.6,301.9l-22.9,13.4c0.3,3.3,0.3,6.7,0,10c7.7,0.3,19.5-6.1,21.7-13.8C836.4,307.6,837,303.8,836.6,301.9z
	"/>
<path class="st13" d="M792.9,235.1c-5.4,10.9-7.8,44.6,7.3,39.4s14.3-31,14.3-31S805.4,209.6,792.9,235.1z"/>
<path class="st7" d="M859.3,266.6c-5.7,23.6-7.9,37.6-22.1,47.7c-21.4,15.1-48.8-1-50.2-25.8c-1.3-22.3,8.3-57.1,33.3-62.4
	C844.9,220.8,865,243,859.3,266.6z"/>
<path class="st13" d="M847.2,247.3c-13.8,8.3-11.5,35.3,7.5,42.4s23.2-6.8,20-8.2c6.6-1.4,32.5-13,22.2-34
	c-6.2-12.8-25.3-10.7-25.3-10.7s22.5-22.1-12.9-39.9c-43.3-21.7-49.8,18.2-49.8,18.2s-27.9-3.1-25.5,15.5c3.1,24.6,29.3,5,29.3,5
	S814.4,257.2,847.2,247.3z"/>
<path class="st13" d="M810.5,224.4c-0.5,0-1-0.3-1.2-0.8c-0.3-0.7-6.2-18.4,2.9-29.9c5.9-7.5,16.7-10.5,32.1-8.9
	c0.7,0.1,1.2,0.7,1.1,1.4c-0.1,0.7-0.6,1.2-1.3,1.1c0,0-0.1,0-0.1,0c-14.5-1.5-24.5,1.2-29.9,8c-8.2,10.4-2.5,27.3-2.5,27.5
	c0.2,0.7-0.1,1.4-0.8,1.6c0,0,0,0,0,0C810.7,224.4,810.6,224.4,810.5,224.4z"/>
<path class="st7" d="M865.3,294.8c-4.1,4.5-9.8,7.2-15.9,7.5c-8.1,0.3-10.2-7.4-6.4-14c3.4-6,11.8-13.3,19.1-10.5
	S870.3,289.2,865.3,294.8z"/>
<path class="st14" d="M605,1050l38.5,15.2c0,0,44.8-149.1,60.1-223.6c4.7-22.7,14.2-54,25.5-87.3c14.3-42,31.4-87.2,45.2-122.6
	c14.6-37.2,25.5-63.6,25.5-63.6L715.2,553c0,0-73.5,195.8-84,269.6C620.3,899.3,605,1050,605,1050z"/>
<path class="st15" d="M729.1,754.3c14.3-42,31.4-87.2,45.2-122.6l-6.8-20C743.7,634.5,729.6,711.6,729.1,754.3z"/>
<path class="st14" d="M760.8,561.1c0,0-13.3,208.9-10.7,280.4c2.9,78.3,59.9,244.8,59.9,244.8h44.7c0,0-29-149.8-34.8-226
	c-6.7-86.8,23.9-284.4,23.9-284.4L760.8,561.1z"/>
<polygon class="st9" points="804.6,1087.4 857.3,1087.4 857.3,1071.6 798.4,1070.6 "/>
<polygon class="st9" points="599.8,1049 645.7,1067.1 651.5,1052.3 600.6,1031.2 "/>
<path class="st13" d="M821.9,266.7c-0.3,1.9-1.7,3.3-2.9,3.1s-2-2-1.7-3.9s1.7-3.3,2.9-3.1S822.3,264.8,821.9,266.7z"/>
<path class="st13" d="M800,262.8c-0.3,1.9-1.7,3.3-2.9,3.1s-2-2-1.7-3.9s1.7-3.3,2.9-3.1S800.4,260.9,800,262.8z"/>
<path class="st16" d="M806.8,265c0,0-6.4,10.4-12.2,14.9c2.8,3.8,9,3.4,9,3.4L806.8,265z"/>
<path class="st13" d="M817.5,297.1c-0.3,0-0.6-0.3-0.6-0.6c0-0.3,0.2-0.5,0.4-0.5c3.3-0.7,3.5-1.3,3.5-1.3c-0.1,0-0.1-0.1-0.2-0.2
	c0,0-1.5-2.1-9-2.5c-0.3,0-0.6-0.3-0.6-0.6c0,0,0,0,0,0c0-0.3,0.3-0.6,0.6-0.5l0,0c7.6,0.3,9.5,2.4,9.9,2.9c0.3,0.3,0.4,0.7,0.3,1.1
	c-0.2,0.9-1.6,1.6-4.4,2.2L817.5,297.1z"/>
<path class="st13" d="M830,260.9c-0.4,0-0.8-0.3-1-0.6c-1.3-2.7-3.7-4.6-6.6-5.1c-0.6-0.1-1.1-0.7-1-1.3c0.1-0.6,0.6-1.1,1.2-1
	c0,0,0,0,0,0c3.7,0.6,6.8,3,8.4,6.4c0.3,0.6,0.1,1.3-0.5,1.5c0,0,0,0,0,0C830.4,260.9,830.2,260.9,830,260.9z"/>
<path class="st13" d="M792,253.6c-0.2,0-0.5-0.1-0.7-0.2c-0.5-0.4-0.6-1.1-0.3-1.6c0,0,0,0,0,0c2.1-3.1,5.6-4.9,9.3-5
	c0.6,0,1.1,0.6,1.1,1.2c0,0.6-0.4,1.1-1,1.1c-0.1,0-0.1,0-0.2,0l0,0c-2.9,0.1-5.7,1.6-7.3,4C792.7,253.4,792.4,253.6,792,253.6z"/>
<path class="st9" d="M819.4,1120.9c-1.7,0.1-3.3-0.3-4.7-1.2c-0.9-0.8-1.3-1.9-1.2-3.1c0-0.7,0.4-1.3,1-1.6c2.7-1.4,10.6,3.5,11.5,4
	c0.2,0.1,0.3,0.4,0.3,0.6c0,0.2-0.2,0.4-0.4,0.5C823.7,1120.5,821.5,1120.8,819.4,1120.9z M815.7,1115.9c-0.3,0-0.5,0-0.8,0.1
	c-0.2,0.1-0.3,0.2-0.4,0.7c-0.1,0.8,0.2,1.6,0.8,2.1c1.3,1.1,4.5,1.3,8.7,0.4C821.3,1117.6,817.6,1115.8,815.7,1115.9L815.7,1115.9z
	"/>
<path class="st9" d="M825.6,1120c-0.1,0-0.2,0-0.3-0.1c-2.5-1.4-7.4-6.7-6.9-9.4c0.2-0.9,0.9-1.5,1.8-1.5c0.9-0.1,1.8,0.1,2.5,0.7
	c2.8,2.3,3.4,9.4,3.4,9.7c0,0.2-0.1,0.4-0.3,0.5C825.8,1120,825.7,1120,825.6,1120z M820.7,1110.1h-0.3c-0.8,0.1-0.8,0.4-0.8,0.6
	c-0.3,1.6,2.8,5.7,5.3,7.6c-0.3-2.1-1.1-6.2-2.9-7.7C821.6,1110.3,821.2,1110.1,820.7,1110.1z"/>
<path class="st9" d="M602,1084.9L602,1084.9c-4.1-0.7-10.9-2.4-12.5-5.6c-0.5-0.9-0.5-2.1,0-3c0.3-0.6,0.9-1,1.5-1.1h0.3
	c3.5,0,10.4,7.8,11.2,8.8c0.2,0.2,0.2,0.4,0.1,0.7C602.4,1084.9,602.2,1084.9,602,1084.9z M591.3,1076.3h-0.2
	c-0.3,0-0.5,0.2-0.6,0.4c-0.3,0.6-0.3,1.4,0,2c0.9,1.8,4.5,3.5,9.9,4.6C597.5,1080.3,593.2,1076.3,591.3,1076.3L591.3,1076.3z"/>
<path class="st9" d="M602,1084.9c-0.2,0-0.3-0.1-0.4-0.2c-2.3-2.3-5.7-9.4-4.3-11.8c0.3-0.6,1.1-1.1,2.6-0.7
	c1.1,0.3,2.1,1.1,2.6,2.1c2,3.5,0.1,9.9,0.1,10.1c-0.1,0.2-0.2,0.4-0.4,0.4L602,1084.9z M598.9,1073.2c-0.2,0-0.5,0.1-0.6,0.3
	c-0.9,1.4,1.3,6.8,3.4,9.6c0.4-1.9,1-5.9-0.2-8.2c-0.4-0.8-1.1-1.3-1.9-1.6C599.4,1073.3,599.1,1073.3,598.9,1073.2L598.9,1073.2z"
	/>
<path class="st7" d="M889.6,379.8c3.2,3.8,6,7.2,8.8,10.9s5.5,7.3,8.2,11c5.3,7.4,10.4,15.1,15.1,23s9.2,16.1,13.3,24.5l3,6.4
	l2.7,6.6c0.9,2.2,1.7,4.5,2.5,6.8l1.2,3.4l0.3,0.9l0.5,1.4c0.3,1.1,0.6,2.1,0.8,3.1c1.4,7.9,0.6,13.6-0.3,19c-1,5-2.3,9.9-3.9,14.8
	c-3.1,8.9-6.8,17.5-11,25.9c-8.1,16.2-17.5,31.7-28,46.4l-15.9-9.1c6.6-15.8,12.9-32.1,18.4-48c2.7-7.7,5-15.6,6.9-23.6
	c0.8-3.6,1.5-7.2,1.8-10.9c0.3-3.3,0.1-6.4-0.3-7.2c0,0-0.1-0.1-0.1-0.1s0.1,0.2-0.1-0.1l-0.3-0.7l-1.2-2.7
	c-0.8-1.8-1.6-3.6-2.5-5.4l-2.7-5.4l-2.9-5.4c-4-7.1-8.3-14.2-13-21.1c-4.6-6.9-9.4-13.8-14.4-20.7s-10.2-13.7-15.1-19.9
	L889.6,379.8z"/>
<path class="st9" d="M882.3,366.4c23.1,3.5,53.8,55.6,53.8,55.6l-43.4,47.3c0,0-23.8-30.7-37.7-57.5
	C839.9,382.5,854.3,362.1,882.3,366.4z"/>
<path class="st7" d="M891.2,570.1l-21.4,12.6l25.6,17.8c0,0,15.8-14.8,8.9-24L891.2,570.1z"/>
<polygon class="st7" points="862.3,601.6 884.2,615.3 895.5,600.5 869.9,582.6 "/>
<path class="st9" d="M644.9,267.9h-3.3c0-6.5-5.3-11.7-11.7-11.7v-3.3C638.1,252.8,644.8,259.6,644.9,267.9z"/>
<path class="st9" d="M651.6,267.9h-3.3c0-10.2-8.3-18.4-18.4-18.4v-3.3C641.8,246.1,651.5,255.9,651.6,267.9z"/>
<path class="st9" d="M658.3,267.9h-3.3c0-13.9-11.3-25.1-25.2-25.1v-3.3C645.5,239.4,658.3,252.2,658.3,267.9z"/>
<path class="st9" d="M627.3,346.3c-8.3,0-15.1-6.7-15.1-15.1h3.3c0,6.5,5.3,11.7,11.7,11.7L627.3,346.3z"/>
<path class="st9" d="M627.3,353c-12,0-21.8-9.7-21.8-21.8h3.4c0,10.2,8.3,18.4,18.4,18.4L627.3,353z"/>
<path class="st9" d="M627.3,359.7c-15.7,0-28.5-12.8-28.5-28.5h3.3c0,13.9,11.3,25.1,25.1,25.2L627.3,359.7z"/>
<rect x="124.6" y="236" class="st9" width="3.3" height="66"/>
<rect x="124.6" y="320.1" class="st9" width="3.3" height="21.2"/>
<path class="st9" d="M150,168.6h348.2c7.5,0,13.6,6.1,13.6,13.7v266.9c0,7.5-6.1,13.7-13.6,13.7H150c-7.5,0-13.6-6.1-13.6-13.7
	V182.3C136.3,174.7,142.4,168.6,150,168.6z"/>
<path class="st9" d="M131.8,167.6c-0.9,0-1.7-0.4-2.4-1l-25.9-25.9c-1.3-1.3-1.3-3.4,0-4.7c1.3-1.3,3.4-1.3,4.7,0l25.9,25.9
	c1.3,1.3,1.3,3.4,0,4.8C133.6,167.2,132.7,167.6,131.8,167.6L131.8,167.6z"/>
<path class="st9" d="M148.5,160.5c-1.6,0-3-1.1-3.3-2.7l-4.8-24.7c-0.3-1.8,0.8-3.6,2.7-3.9c1.8-0.3,3.6,0.8,3.9,2.7l4.8,24.7
	c0.4,1.8-0.8,3.6-2.6,3.9C148.9,160.4,148.7,160.5,148.5,160.5L148.5,160.5z"/>
<path class="st9" d="M124.7,184.2c-0.2,0-0.4,0-0.6-0.1l-24.7-4.8c-1.8-0.4-3-2.1-2.6-4c0.4-1.8,2.1-3,3.9-2.6l24.7,4.8
	c1.8,0.3,3,2.1,2.7,3.9C127.7,183.1,126.3,184.2,124.7,184.2z"/>
<polygon class="st9" points="505,302.3 587.4,277.1 505,364.4 "/>
<path class="st5" d="M405.6,368.3H242.5c0-8.7,3.5-17.1,9.6-23.2l3.2-3.3c5.3-5.3,8.3-12.4,8.2-19.9v-37.9
	c-0.1-33.3,26.8-60.3,60.1-60.4c5.8,0,11.5,0.8,17.1,2.4c-8.5,22.8,3,48.1,25.8,56.6c4.9,1.8,10.1,2.8,15.4,2.8c0.8,0,1.6,0,2.5-0.1
	v36.5c0,7.5,3,14.6,8.2,19.9l3.3,3.3C402.1,351.2,405.6,359.5,405.6,368.3L405.6,368.3z"/>
<path class="st5" d="M356.3,377.1c-0.8,17.7-15.7,31.5-33.5,30.8c-16.7-0.6-29.9-14.3-31-30.8H356.3z"/>
<ellipse transform="matrix(0.7071 -0.7071 0.7071 0.7071 -58.8333 340.8267)" class="st17" cx="382" cy="241.4" rx="32.9" ry="32.9"/>
<path class="st5" d="M388.6,225.5v33.1h-9.2v-21.7c-1.3,1-2.8,1.9-4.3,2.7c-1.7,0.8-3.4,1.5-5.2,2v-7.4c2.6-0.7,5-2,7.2-3.6
	c1.7-1.4,3.1-3.2,4-5.2L388.6,225.5z"/>
</svg>
